<svg width="56" height="56" viewBox="0 0 56 56" fill="none" xmlns="http://www.w3.org/2000/svg">
<path d="M21 39.6693C21 38.3806 22.0447 37.3359 23.3333 37.3359C24.622 37.3359 25.6667 38.3806 25.6667 39.6693C25.6667 40.9579 24.622 42.0026 23.3333 42.0026C22.0447 42.0026 21 40.9579 21 39.6693Z" fill="#005CEF"/>
<path d="M35 39.6693C35 38.3806 36.0447 37.3359 37.3333 37.3359C38.622 37.3359 39.6667 38.3806 39.6667 39.6693C39.6667 40.9579 38.622 42.0026 37.3333 42.0026C36.0447 42.0026 35 40.9579 35 39.6693Z" fill="#005CEF"/>
<path fill-rule="evenodd" clip-rule="evenodd" d="M11.5 15.75C11.5 15.3358 11.8358 15 12.25 15H15.401C15.9254 15 16.3941 15.3273 16.5746 15.8197L22.39 31.6803C22.5705 32.1727 23.0391 32.5 23.5636 32.5H37.6421C38.1801 32.5 38.6578 32.1557 38.8279 31.6453L42.7097 20H24.5C24.0858 20 23.75 19.6642 23.75 19.25C23.75 18.8358 24.0858 18.5 24.5 18.5H43.0565C43.9097 18.5 44.5122 19.3359 44.2424 20.1453L40.2509 32.1196C39.8766 33.2426 38.8258 34 37.6421 34H23.5636C22.4098 34 21.3788 33.2799 20.9816 32.1967L15.2264 16.5H12.25C11.8358 16.5 11.5 16.1642 11.5 15.75Z" fill="#005CEF"/>
<path fill-rule="evenodd" clip-rule="evenodd" d="M11.25 15.75C11.25 15.1977 11.6977 14.75 12.25 14.75H15.401C16.0303 14.75 16.5927 15.1428 16.8093 15.7336L22.6247 31.5942C22.7691 31.9881 23.144 32.25 23.5636 32.25H37.6421C38.0725 32.25 38.4546 31.9746 38.5907 31.5662L42.3628 20.25H24.5C23.9477 20.25 23.5 19.8023 23.5 19.25C23.5 18.6977 23.9477 18.25 24.5 18.25H43.0565C44.0804 18.25 44.8033 19.253 44.4796 20.2243L40.4881 32.1987C40.0798 33.4237 38.9334 34.25 37.6421 34.25H23.5636C22.305 34.25 21.1802 33.4644 20.7469 32.2827L15.0518 16.75H12.25C11.6977 16.75 11.25 16.3023 11.25 15.75ZM12.25 15.25C11.9739 15.25 11.75 15.4739 11.75 15.75C11.75 16.0261 11.9739 16.25 12.25 16.25H15.2264C15.3313 16.25 15.425 16.3155 15.4611 16.4139L21.2164 32.1106C21.5774 33.0953 22.5147 33.75 23.5636 33.75H37.6421C38.7181 33.75 39.6735 33.0614 40.0138 32.0406L44.0052 20.0662C44.2211 19.4187 43.7391 18.75 43.0565 18.75H24.5C24.2239 18.75 24 18.9739 24 19.25C24 19.5261 24.2239 19.75 24.5 19.75H42.7097C42.79 19.75 42.8655 19.7886 42.9125 19.8538C42.9595 19.919 42.9723 20.0028 42.9469 20.0791L39.0651 31.7243C38.8609 32.3369 38.2877 32.75 37.6421 32.75H23.5636C22.9343 32.75 22.3719 32.3572 22.1552 31.7664L16.3399 15.9058C16.1955 15.5119 15.8206 15.25 15.401 15.25H12.25Z" fill="#005CEF"/>
</svg>
