<svg width="56" height="56" viewBox="0 0 56 56" fill="none" xmlns="http://www.w3.org/2000/svg">
<path fill-rule="evenodd" clip-rule="evenodd" d="M11.25 12.25C11.25 11.6977 11.6977 11.25 12.25 11.25H43.75C44.3023 11.25 44.75 11.6977 44.75 12.25V22.1641C44.75 22.7163 44.3023 23.1641 43.75 23.1641C41.0805 23.1641 38.916 25.3282 38.916 27.9974C38.916 30.6668 41.08 32.8307 43.7494 32.8307C44.3016 32.8307 44.7493 33.2784 44.7493 33.8307L44.75 43.7499C44.75 44.0152 44.6447 44.2695 44.4571 44.4571C44.2696 44.6446 44.0152 44.75 43.75 44.75H12.25C11.6977 44.75 11.25 44.3023 11.25 43.75V33.8307C11.25 33.2785 11.6976 32.8308 12.2499 32.8307C14.919 32.8304 17.0827 30.6666 17.0827 27.9974C17.0827 25.3282 14.919 23.1644 12.2499 23.1641C11.6976 23.164 11.25 22.7163 11.25 22.1641V12.25ZM13.25 13.25V21.2368C16.5496 21.721 19.0827 24.5634 19.0827 27.9974C19.0827 31.4314 16.5496 34.2738 13.25 34.758V42.75H42.7499L42.7494 34.7581C39.4495 34.2742 36.916 31.4317 36.916 27.9974C36.916 24.563 39.4501 21.7206 42.75 21.2367V13.25H13.25ZM23.5 24.5C23.5 23.9477 23.9477 23.5 24.5 23.5H31.5C32.0523 23.5 32.5 23.9477 32.5 24.5C32.5 25.0523 32.0523 25.5 31.5 25.5H24.5C23.9477 25.5 23.5 25.0523 23.5 24.5ZM23.5 31.5C23.5 30.9477 23.9477 30.5 24.5 30.5H31.5C32.0523 30.5 32.5 30.9477 32.5 31.5C32.5 32.0523 32.0523 32.5 31.5 32.5H24.5C23.9477 32.5 23.5 32.0523 23.5 31.5Z" fill="#005CEF"/>
</svg>
