<svg width="56" height="56" viewBox="0 0 56 56" fill="none" xmlns="http://www.w3.org/2000/svg">
<path fill-rule="evenodd" clip-rule="evenodd" d="M33.0208 15.5859C31.0593 15.5859 29.1782 16.3651 27.7912 17.7521C26.4535 19.0899 25.6811 20.8873 25.6279 22.7731C27.5126 23.1107 29.2574 24.0171 30.6214 25.3812C31.9855 26.7452 32.892 28.49 33.2295 30.3747C35.1153 30.3215 36.9127 29.5491 38.2505 28.2114C39.6375 26.8244 40.4167 24.9433 40.4167 22.9818C40.4167 21.0203 39.6375 19.1391 38.2505 17.7521C36.8635 16.3651 34.9823 15.5859 33.0208 15.5859ZM26.377 16.3379C28.139 14.5759 30.5289 13.5859 33.0208 13.5859C35.5128 13.5859 37.9026 14.5759 39.6647 16.3379C41.4268 18.1 42.4167 20.4898 42.4167 22.9818C42.4167 25.4737 41.4268 27.8636 39.6647 29.6256C37.9026 31.3877 35.5128 32.3776 33.0208 32.3776C32.7678 32.3776 32.5076 32.3628 32.2904 32.35C31.7929 32.3208 31.3929 31.9296 31.3525 31.4328C31.21 29.6815 30.4497 28.0378 29.2072 26.7954C27.9648 25.5529 26.3211 24.7926 24.5698 24.6501C24.073 24.6097 23.6818 24.2097 23.6526 23.7122C23.6398 23.495 23.625 23.2348 23.625 22.9818C23.625 20.4898 24.6149 18.1 26.377 16.3379Z" fill="#005CEF"/>
<path fill-rule="evenodd" clip-rule="evenodd" d="M23.9798 24.625C22.5171 24.625 21.0872 25.0588 19.8709 25.8714C18.6547 26.6841 17.7067 27.8392 17.147 29.1906C16.5872 30.542 16.4407 32.029 16.7261 33.4637C17.0115 34.8983 17.7159 36.2162 18.7502 37.2505C19.7845 38.2848 21.1023 38.9892 22.537 39.2746C23.9716 39.5599 25.4587 39.4135 26.8101 38.8537C28.1615 38.2939 29.3166 37.346 30.1292 36.1297C30.9419 34.9135 31.3757 33.4836 31.3757 32.0208C31.3757 31.8379 31.365 31.637 31.3522 31.4194C31.2076 29.6721 30.4478 28.0327 29.2079 26.7928C27.968 25.5529 26.3285 24.7931 24.5813 24.6484C24.3637 24.6357 24.1628 24.625 23.9798 24.625ZM18.7598 24.2085C20.3049 23.1761 22.1215 22.625 23.9798 22.625C24.2328 22.625 24.4931 22.6398 24.7102 22.6526L24.7325 22.6541C26.9567 22.835 29.0442 23.8006 30.6221 25.3786C32.2 26.9565 33.1657 29.0439 33.3465 31.2681L33.3481 31.2904C33.3609 31.5076 33.3757 31.7678 33.3757 32.0208C33.3757 33.8792 32.8246 35.6957 31.7922 37.2409C30.7597 38.786 29.2923 39.9903 27.5755 40.7015C25.8586 41.4126 23.9694 41.5987 22.1468 41.2361C20.3242 40.8736 18.65 39.9787 17.336 38.6647C16.0219 37.3507 15.1271 35.6765 14.7645 33.8539C14.402 32.0313 14.5881 30.1421 15.2992 28.4252C16.0104 26.7083 17.2146 25.2409 18.7598 24.2085Z" fill="#005CEF"/>
<path fill-rule="evenodd" clip-rule="evenodd" d="M20.2186 13.586C20.6726 13.584 21.117 13.7169 21.4954 13.9679C21.8747 14.2196 22.1705 14.5784 22.3451 14.9988C22.5196 15.4192 22.565 15.8821 22.4755 16.3284C22.3861 16.7739 22.1663 17.1828 21.844 17.5031L18.5011 20.846C18.1808 21.1683 17.772 21.3881 17.3264 21.4775C16.8801 21.567 16.4173 21.5216 15.9969 21.347C15.5765 21.1725 15.2176 20.8767 14.966 20.4974C14.715 20.119 14.582 19.6746 14.584 19.2205L14.584 19.2172L14.584 19.223V19.2205V15.8776C14.584 15.2698 14.8254 14.6869 15.2552 14.2572C15.685 13.8274 16.2679 13.586 16.8757 13.586H20.2186ZM20.3898 15.6346C20.3416 15.6025 20.2848 15.5856 20.2269 15.5859L20.2211 15.586L16.8757 15.586C16.7983 15.586 16.7241 15.6167 16.6694 15.6714C16.6147 15.7261 16.584 15.8003 16.584 15.8776V19.2289C16.5837 19.2868 16.6006 19.3435 16.6326 19.3918C16.6646 19.4401 16.7103 19.4777 16.7638 19.4999C16.8173 19.5221 16.8762 19.5279 16.933 19.5165C16.9898 19.5051 17.0419 19.4771 17.0827 19.4359L17.0856 19.433L20.4311 16.0876L20.434 16.0847C20.4751 16.0439 20.5032 15.9918 20.5146 15.935C20.526 15.8782 20.5202 15.8193 20.498 15.7658C20.4758 15.7123 20.4381 15.6666 20.3898 15.6346Z" fill="#005CEF"/>
<path fill-rule="evenodd" clip-rule="evenodd" d="M36.8859 41.5234C36.4319 41.5254 35.9875 41.3925 35.6091 41.1415C35.2297 40.8898 34.934 40.5309 34.7594 40.1105C34.5849 39.6902 34.5395 39.2273 34.629 38.781C34.7184 38.3355 34.9382 37.9266 35.2605 37.6063L38.6034 34.2634C38.9237 33.9411 39.3325 33.7213 39.7781 33.6319C40.2244 33.5424 40.6872 33.5878 41.1076 33.7623C41.528 33.9369 41.8869 34.2327 42.1385 34.612C42.3895 34.9904 42.5225 35.4348 42.5205 35.8888L42.5205 35.8921L42.5205 35.8863V35.8888V39.2317C42.5205 39.8395 42.279 40.4224 41.8493 40.8522C41.4195 41.282 40.8366 41.5234 40.2288 41.5234H36.8859ZM36.7147 39.4748C36.7629 39.5068 36.8197 39.5238 36.8776 39.5234L36.8834 39.5234L40.2288 39.5234C40.3062 39.5234 40.3804 39.4927 40.4351 39.438C40.4898 39.3833 40.5205 39.3091 40.5205 39.2317V35.8805C40.5208 35.8226 40.5039 35.7659 40.4719 35.7176C40.4399 35.6693 40.3942 35.6317 40.3407 35.6095C40.2872 35.5872 40.2283 35.5815 40.1715 35.5929C40.1147 35.6042 40.0625 35.6323 40.0218 35.6734L40.0188 35.6764L36.6734 39.0218L36.6705 39.0247C36.6294 39.0655 36.6013 39.1176 36.5899 39.1744C36.5785 39.2312 36.5843 39.2901 36.6065 39.3436C36.6287 39.3971 36.6664 39.4428 36.7147 39.4748Z" fill="#005CEF"/>
</svg>
