<svg width="60" height="60" viewBox="0 0 60 60" fill="none" xmlns="http://www.w3.org/2000/svg">
<path d="M30.2085 21.0525C30.1052 21.19 29.8948 21.19 29.7915 21.0525C26.0605 16.0864 20.1868 15.548 16.5381 19.4372C12.8206 23.3996 12.8206 29.8241 16.5381 33.7865L27.9807 45.9834C29.0959 47.1722 30.9041 47.1722 32.0193 45.9834L43.4619 33.7865C47.1794 29.8241 47.1794 23.3996 43.4619 19.4372C39.8132 15.548 33.9395 16.0864 30.2085 21.0525Z" fill="white"/>
<path d="M43.4619 33.7865L44.0089 34.2997L43.4619 33.7865ZM27.9807 45.9834L28.5277 45.4703L27.9807 45.9834ZM32.0193 45.9834L31.4723 45.4703L32.0193 45.9834ZM16.5381 33.7865L15.9911 34.2997L16.5381 33.7865ZM30.2085 21.0525L29.6089 20.602L30.2085 21.0525ZM29.7915 21.0525L30.3911 20.602L29.7915 21.0525ZM28.5277 45.4703L17.085 33.2734L15.9911 34.2997L27.4337 46.4966L28.5277 45.4703ZM42.915 33.2734L31.4723 45.4703L32.5663 46.4966L44.0089 34.2997L42.915 33.2734ZM44.0089 18.924C42.0263 16.8107 39.4134 15.8825 36.7821 16.1788C34.1581 16.4743 31.5803 17.9779 29.6089 20.602L30.8081 21.503C32.5676 19.161 34.7923 17.9124 36.95 17.6694C39.1006 17.4272 41.2489 18.1745 42.915 19.9503L44.0089 18.924ZM42.915 19.9503C46.3617 23.6242 46.3617 29.5995 42.915 33.2734L44.0089 34.2997C47.997 30.0487 47.997 23.175 44.0089 18.924L42.915 19.9503ZM27.4337 46.4966C28.8452 48.0011 31.1548 48.0011 32.5663 46.4966L31.4723 45.4703C30.6534 46.3432 29.3466 46.3432 28.5277 45.4703L27.4337 46.4966ZM17.085 19.9503C18.7511 18.1745 20.8994 17.4272 23.05 17.6694C25.2077 17.9124 27.4324 19.161 29.1919 21.503L30.3911 20.602C28.4197 17.9779 25.8419 16.4743 23.2179 16.1788C20.5866 15.8825 17.9737 16.8107 15.9911 18.924L17.085 19.9503ZM15.9911 18.924C12.003 23.175 12.003 30.0487 15.9911 34.2997L17.085 33.2734C13.6383 29.5995 13.6383 23.6242 17.085 19.9503L15.9911 18.924ZM29.6089 20.602C29.8056 20.3402 30.1944 20.3402 30.3911 20.602L29.1919 21.503C29.5952 22.0399 30.4048 22.0399 30.8081 21.503L29.6089 20.602Z" fill="white"/>
</svg>
