<svg width="59" height="58" viewBox="0 0 59 58" fill="none" xmlns="http://www.w3.org/2000/svg">
<path d="M29.3493 13.7373C29.5399 13.1396 30.376 13.1396 30.5666 13.7373L33.9571 24.3701C34.0425 24.6377 34.2891 24.819 34.5672 24.8183L45.6135 24.7939C46.2345 24.7925 46.4929 25.5968 45.9897 25.9648L37.0388 32.5118C36.8135 32.6766 36.7193 32.9698 36.8058 33.2371L40.2423 43.8548C40.4354 44.4516 39.759 44.9487 39.2574 44.5784L30.335 37.9919C30.1103 37.8261 29.8055 37.8261 29.5809 37.9919L20.6584 44.5784C20.1568 44.9487 19.4804 44.4516 19.6736 43.8548L23.11 33.2371C23.1966 32.9698 23.1024 32.6766 22.877 32.5118L13.9261 25.9648C13.423 25.5968 13.6814 24.7925 14.3023 24.7939L25.3487 24.8183C25.6267 24.819 25.8734 24.6377 25.9587 24.3701L29.3493 13.7373Z" fill="#E4E6F1" stroke="white" stroke-width="1.5"/>
</svg>
