<svg width="32" height="33" viewBox="0 0 32 33" fill="none" xmlns="http://www.w3.org/2000/svg">
<g clip-path="url(#clip0_817_5660)">
<path d="M9 18.0234C9 16.9189 9.89543 16.0234 11 16.0234H21C22.1046 16.0234 23 16.9189 23 18.0234V23.3568C23 24.4613 22.1046 25.3568 21 25.3568H11C9.89543 25.3568 9 24.4613 9 23.3568V18.0234Z" stroke="#666666" stroke-width="1.5"/>
<path d="M13 15.7211L13 9.35679C13 8.25221 13.8954 7.35678 15 7.35679L17 7.35681C18.1046 7.35683 19 8.25225 19 9.35681L19 16.0234" stroke="#666666" stroke-width="1.5"/>
<path d="M14.6677 20.6486C14.6619 20.8236 14.6907 20.998 14.7523 21.1619C14.8139 21.3258 14.9072 21.476 15.0269 21.6038C15.1465 21.7317 15.2902 21.8347 15.4496 21.907C15.6091 21.9793 15.7812 22.0195 15.9562 22.0253C16.1312 22.0311 16.3057 22.0024 16.4696 21.9407C16.6335 21.8791 16.7836 21.7858 16.9114 21.6662C17.0393 21.5465 17.1423 21.4029 17.2146 21.2434C17.2869 21.0839 17.3271 20.9118 17.3329 20.7368C17.3387 20.5618 17.31 20.3874 17.2484 20.2235C17.1867 20.0596 17.0934 19.9094 16.9738 19.7816C16.8541 19.6538 16.7105 19.5507 16.551 19.4784C16.3916 19.4061 16.2194 19.3659 16.0444 19.3601C15.8694 19.3543 15.695 19.3831 15.5311 19.4447C15.3672 19.5063 15.217 19.5996 15.0892 19.7192C14.9614 19.8389 14.8583 19.9825 14.786 20.142C14.7137 20.3015 14.6735 20.4736 14.6677 20.6486Z" fill="#666666"/>
</g>
<defs>
<clipPath id="clip0_817_5660">
<rect width="32" height="32" fill="white" transform="translate(0 0.359375)"/>
</clipPath>
</defs>
</svg>
