<svg width="120" height="24" viewBox="0 0 120 24" fill="none" xmlns="http://www.w3.org/2000/svg">
<path d="M7.60759 19.1925C8.31159 19.1925 8.88759 19.1392 9.33559 19.0325C9.80493 18.9045 10.1783 18.7445 10.4556 18.5525C10.7329 18.3392 10.9249 18.0938 11.0316 17.8165C11.1383 17.5392 11.1916 17.2298 11.1916 16.8885C11.1916 16.1632 10.8503 15.5658 10.1676 15.0965C9.48493 14.6058 8.31159 14.0832 6.64759 13.5285C5.92226 13.2725 5.19693 12.9845 4.47159 12.6645C3.74626 12.3232 3.09559 11.9072 2.51959 11.4165C1.94359 10.9045 1.47426 10.2965 1.11159 9.5925C0.748927 8.86717 0.567594 7.9925 0.567594 6.9685C0.567594 5.9445 0.759594 5.02717 1.14359 4.2165C1.52759 3.3845 2.07159 2.6805 2.77559 2.1045C3.47959 1.5285 4.33293 1.09117 5.33559 0.792501C6.33826 0.4725 7.46893 0.3125 8.72759 0.3125C10.2209 0.3125 11.5116 0.4725 12.5996 0.792501C13.6876 1.1125 14.5836 1.4645 15.2876 1.8485L13.8476 5.7845C13.2289 5.4645 12.5356 5.18717 11.7676 4.9525C11.0209 4.6965 10.1143 4.5685 9.04759 4.5685C7.85293 4.5685 6.98893 4.73917 6.45559 5.0805C5.94359 5.4005 5.68759 5.90183 5.68759 6.5845C5.68759 6.98983 5.78359 7.33117 5.97559 7.6085C6.16759 7.88583 6.43426 8.14183 6.77559 8.3765C7.13826 8.58983 7.54359 8.7925 7.99159 8.9845C8.46093 9.15517 8.97293 9.3365 9.52759 9.5285C10.6796 9.95517 11.6823 10.3818 12.5356 10.8085C13.3889 11.2138 14.0929 11.6938 14.6476 12.2485C15.2236 12.8032 15.6503 13.4538 15.9276 14.2005C16.2049 14.9472 16.3436 15.8538 16.3436 16.9205C16.3436 18.9898 15.6183 20.6005 14.1676 21.7525C12.7169 22.8832 10.5303 23.4485 7.60759 23.4485C6.62626 23.4485 5.74093 23.3845 4.95159 23.2565C4.16226 23.1498 3.45826 23.0112 2.83959 22.8405C2.24226 22.6698 1.71959 22.4885 1.27159 22.2965C0.844927 22.1045 0.48226 21.9232 0.183594 21.7525L1.59159 17.7845C2.25293 18.1472 3.06359 18.4778 4.02359 18.7765C5.00493 19.0538 6.19959 19.1925 7.60759 19.1925Z" fill="white"/>
<path d="M26.6716 19.6725C27.1409 19.6725 27.5889 19.6618 28.0156 19.6405C28.4423 19.6192 28.7836 19.5872 29.0396 19.5445V15.9285C28.8476 15.8858 28.5596 15.8432 28.1756 15.8005C27.7916 15.7578 27.4396 15.7365 27.1196 15.7365C26.6716 15.7365 26.2449 15.7685 25.8396 15.8325C25.4556 15.8752 25.1143 15.9712 24.8156 16.1205C24.5169 16.2698 24.2823 16.4725 24.1116 16.7285C23.9409 16.9845 23.8556 17.3045 23.8556 17.6885C23.8556 18.4352 24.1009 18.9578 24.5916 19.2565C25.1036 19.5338 25.7969 19.6725 26.6716 19.6725ZM26.2876 5.7205C27.6956 5.7205 28.8689 5.8805 29.8076 6.2005C30.7463 6.5205 31.4929 6.97917 32.0476 7.5765C32.6236 8.17383 33.0289 8.89917 33.2636 9.7525C33.4983 10.6058 33.6156 11.5552 33.6156 12.6005V22.5205C32.9329 22.6698 31.9836 22.8405 30.7676 23.0325C29.5516 23.2458 28.0796 23.3525 26.3516 23.3525C25.2636 23.3525 24.2716 23.2565 23.3756 23.0645C22.5009 22.8725 21.7436 22.5632 21.1036 22.1365C20.4636 21.6885 19.9729 21.1125 19.6316 20.4085C19.2903 19.7045 19.1196 18.8405 19.1196 17.8165C19.1196 16.8352 19.3116 16.0032 19.6956 15.3205C20.1009 14.6378 20.6343 14.0938 21.2956 13.6885C21.9569 13.2832 22.7143 12.9952 23.5676 12.8245C24.4209 12.6325 25.3063 12.5365 26.2236 12.5365C26.8423 12.5365 27.3863 12.5685 27.8556 12.6325C28.3463 12.6752 28.7409 12.7392 29.0396 12.8245V12.3765C29.0396 11.5658 28.7943 10.9152 28.3036 10.4245C27.8129 9.93383 26.9596 9.6885 25.7436 9.6885C24.9329 9.6885 24.1329 9.7525 23.3436 9.8805C22.5543 9.98717 21.8716 10.1472 21.2956 10.3605L20.6876 6.5205C20.9649 6.43517 21.3063 6.34983 21.7116 6.2645C22.1383 6.15784 22.5969 6.0725 23.0876 6.0085C23.5783 5.92317 24.0903 5.85917 24.6236 5.8165C25.1783 5.7525 25.7329 5.7205 26.2876 5.7205Z" fill="white"/>
<path d="M42.0968 23.0005C41.0088 20.8672 39.8995 18.3712 38.7688 15.5125C37.6595 12.6538 36.6035 9.53917 35.6008 6.1685H40.6568C40.8702 7.0005 41.1155 7.90717 41.3928 8.8885C41.6915 9.8485 41.9902 10.8298 42.2888 11.8325C42.6088 12.8138 42.9182 13.7738 43.2168 14.7125C43.5368 15.6512 43.8462 16.5045 44.1448 17.2725C44.4222 16.5045 44.7208 15.6512 45.0408 14.7125C45.3608 13.7738 45.6702 12.8138 45.9688 11.8325C46.2888 10.8298 46.5875 9.8485 46.8648 8.8885C47.1635 7.90717 47.4195 7.0005 47.6328 6.1685H52.5608C51.5582 9.53917 50.4915 12.6538 49.3608 15.5125C48.2515 18.3712 47.1528 20.8672 46.0648 23.0005H42.0968Z" fill="white"/>
<path d="M53.8771 14.7125C53.8771 13.2192 54.1011 11.9178 54.5491 10.8085C55.0184 9.67783 55.6264 8.73917 56.3731 7.9925C57.1198 7.24583 57.9731 6.6805 58.9331 6.2965C59.9144 5.9125 60.9171 5.7205 61.9411 5.7205C64.3304 5.7205 66.2184 6.4565 67.6051 7.9285C68.9918 9.37917 69.6851 11.5232 69.6851 14.3605C69.6851 14.6378 69.6744 14.9472 69.6531 15.2885C69.6318 15.6085 69.6104 15.8965 69.5891 16.1525H58.7731C58.8798 17.1338 59.3384 17.9125 60.1491 18.4885C60.9598 19.0645 62.0478 19.3525 63.4131 19.3525C64.2878 19.3525 65.1411 19.2778 65.9731 19.1285C66.8264 18.9578 67.5198 18.7552 68.0531 18.5205L68.6931 22.3925C68.4371 22.5205 68.0958 22.6485 67.6691 22.7765C67.2424 22.9045 66.7624 23.0112 66.2291 23.0965C65.7171 23.2032 65.1624 23.2885 64.5651 23.3525C63.9678 23.4165 63.3704 23.4485 62.7731 23.4485C61.2584 23.4485 59.9358 23.2245 58.8051 22.7765C57.6958 22.3285 56.7678 21.7205 56.0211 20.9525C55.2958 20.1632 54.7518 19.2352 54.3891 18.1685C54.0478 17.1018 53.8771 15.9498 53.8771 14.7125ZM65.0771 12.8885C65.0558 12.4832 64.9811 12.0885 64.8531 11.7045C64.7464 11.3205 64.5651 10.9792 64.3091 10.6805C64.0744 10.3818 63.7651 10.1365 63.3811 9.9445C63.0184 9.7525 62.5598 9.6565 62.0051 9.6565C61.4718 9.6565 61.0131 9.7525 60.6291 9.9445C60.2451 10.1152 59.9251 10.3498 59.6691 10.6485C59.4131 10.9472 59.2104 11.2992 59.0611 11.7045C58.9331 12.0885 58.8371 12.4832 58.7731 12.8885H65.0771Z" fill="white"/>
<path d="M89.1086 14.5525C89.1086 15.8752 88.9166 17.0912 88.5326 18.2005C88.1486 19.2885 87.5939 20.2272 86.8686 21.0165C86.1433 21.7845 85.2686 22.3818 84.2446 22.8085C83.2419 23.2352 82.1113 23.4485 80.8526 23.4485C79.6153 23.4485 78.4846 23.2352 77.4606 22.8085C76.4579 22.3818 75.5939 21.7845 74.8686 21.0165C74.1433 20.2272 73.5779 19.2885 73.1726 18.2005C72.7673 17.0912 72.5646 15.8752 72.5646 14.5525C72.5646 13.2298 72.7673 12.0245 73.1726 10.9365C73.5993 9.8485 74.1753 8.9205 74.9006 8.1525C75.6473 7.3845 76.5219 6.78717 77.5246 6.3605C78.5486 5.93383 79.6579 5.7205 80.8526 5.7205C82.0686 5.7205 83.1779 5.93383 84.1806 6.3605C85.2046 6.78717 86.0793 7.3845 86.8046 8.1525C87.5299 8.9205 88.0953 9.8485 88.5006 10.9365C88.9059 12.0245 89.1086 13.2298 89.1086 14.5525ZM84.2446 14.5525C84.2446 13.0805 83.9459 11.9285 83.3486 11.0965C82.7726 10.2432 81.9406 9.8165 80.8526 9.8165C79.7646 9.8165 78.9219 10.2432 78.3246 11.0965C77.7273 11.9285 77.4286 13.0805 77.4286 14.5525C77.4286 16.0245 77.7273 17.1978 78.3246 18.0725C78.9219 18.9258 79.7646 19.3525 80.8526 19.3525C81.9406 19.3525 82.7726 18.9258 83.3486 18.0725C83.9459 17.1978 84.2446 16.0245 84.2446 14.5525Z" fill="white"/>
<path d="M102.946 10.3925C102.519 10.2858 102.018 10.1792 101.442 10.0725C100.866 9.9445 100.247 9.8805 99.5861 9.8805C99.2874 9.8805 98.9248 9.9125 98.4981 9.9765C98.0928 10.0192 97.7834 10.0725 97.5701 10.1365V23.0005H92.8021V7.0645C93.6554 6.76583 94.6581 6.4885 95.8101 6.2325C96.9834 5.95517 98.2848 5.8165 99.7141 5.8165C99.9701 5.8165 100.279 5.83783 100.642 5.8805C101.005 5.90183 101.367 5.9445 101.73 6.0085C102.093 6.05117 102.455 6.11517 102.818 6.2005C103.181 6.2645 103.49 6.34983 103.746 6.4565L102.946 10.3925Z" fill="white"/>
<path d="M112.422 19.6725C112.891 19.6725 113.339 19.6618 113.766 19.6405C114.192 19.6192 114.534 19.5872 114.79 19.5445V15.9285C114.598 15.8858 114.31 15.8432 113.926 15.8005C113.542 15.7578 113.19 15.7365 112.87 15.7365C112.422 15.7365 111.995 15.7685 111.59 15.8325C111.206 15.8752 110.864 15.9712 110.566 16.1205C110.267 16.2698 110.032 16.4725 109.862 16.7285C109.691 16.9845 109.606 17.3045 109.606 17.6885C109.606 18.4352 109.851 18.9578 110.342 19.2565C110.854 19.5338 111.547 19.6725 112.422 19.6725ZM112.038 5.7205C113.446 5.7205 114.619 5.8805 115.558 6.2005C116.496 6.5205 117.243 6.97917 117.798 7.5765C118.374 8.17383 118.779 8.89917 119.014 9.7525C119.248 10.6058 119.366 11.5552 119.366 12.6005V22.5205C118.683 22.6698 117.734 22.8405 116.518 23.0325C115.302 23.2458 113.83 23.3525 112.102 23.3525C111.014 23.3525 110.022 23.2565 109.126 23.0645C108.251 22.8725 107.494 22.5632 106.854 22.1365C106.214 21.6885 105.723 21.1125 105.382 20.4085C105.04 19.7045 104.87 18.8405 104.87 17.8165C104.87 16.8352 105.062 16.0032 105.446 15.3205C105.851 14.6378 106.384 14.0938 107.046 13.6885C107.707 13.2832 108.464 12.9952 109.318 12.8245C110.171 12.6325 111.056 12.5365 111.974 12.5365C112.592 12.5365 113.136 12.5685 113.606 12.6325C114.096 12.6752 114.491 12.7392 114.79 12.8245V12.3765C114.79 11.5658 114.544 10.9152 114.054 10.4245C113.563 9.93383 112.71 9.6885 111.494 9.6885C110.683 9.6885 109.883 9.7525 109.094 9.8805C108.304 9.98717 107.622 10.1472 107.046 10.3605L106.438 6.5205C106.715 6.43517 107.056 6.34983 107.462 6.2645C107.888 6.15784 108.347 6.0725 108.838 6.0085C109.328 5.92317 109.84 5.85917 110.374 5.8165C110.928 5.7525 111.483 5.7205 112.038 5.7205Z" fill="white"/>
</svg>
