<svg width="83" height="17" viewBox="0 0 83 17" fill="none" xmlns="http://www.w3.org/2000/svg">
<path d="M5.91845 13.7144C6.40245 13.7144 6.79845 13.6777 7.10645 13.6044C7.42912 13.5164 7.68579 13.4064 7.87645 13.2744C8.06712 13.1277 8.19912 12.959 8.27245 12.7684C8.34579 12.5777 8.38245 12.365 8.38245 12.1304C8.38245 11.6317 8.14779 11.221 7.67845 10.8984C7.20912 10.561 6.40245 10.2017 5.25845 9.82038C4.75979 9.64438 4.26112 9.44638 3.76245 9.22638C3.26379 8.99171 2.81645 8.70571 2.42045 8.36838C2.02445 8.01638 1.70179 7.59838 1.45245 7.11438C1.20312 6.61571 1.07845 6.01438 1.07845 5.31037C1.07845 4.60638 1.21045 3.97571 1.47445 3.41838C1.73845 2.84637 2.11245 2.36238 2.59645 1.96637C3.08045 1.57038 3.66712 1.26971 4.35645 1.06438C5.04579 0.844375 5.82312 0.734375 6.68845 0.734375C7.71512 0.734375 8.60245 0.844375 9.35045 1.06438C10.0985 1.28438 10.7145 1.52638 11.1985 1.79038L10.2085 4.49637C9.78312 4.27637 9.30645 4.08571 8.77845 3.92438C8.26512 3.74838 7.64179 3.66038 6.90845 3.66038C6.08712 3.66038 5.49312 3.77771 5.12645 4.01238C4.77445 4.23238 4.59845 4.57704 4.59845 5.04638C4.59845 5.32504 4.66445 5.55971 4.79645 5.75038C4.92845 5.94104 5.11179 6.11704 5.34645 6.27838C5.59579 6.42504 5.87445 6.56438 6.18245 6.69638C6.50512 6.81371 6.85712 6.93838 7.23845 7.07037C8.03045 7.36371 8.71979 7.65704 9.30645 7.95038C9.89312 8.22904 10.3771 8.55904 10.7585 8.94038C11.1545 9.32171 11.4478 9.76904 11.6385 10.2824C11.8291 10.7957 11.9245 11.419 11.9245 12.1524C11.9245 13.575 11.4258 14.6824 10.4285 15.4744C9.43112 16.2517 7.92779 16.6404 5.91845 16.6404C5.24379 16.6404 4.63512 16.5964 4.09245 16.5084C3.54979 16.435 3.06579 16.3397 2.64045 16.2224C2.22979 16.105 1.87045 15.9804 1.56245 15.8484C1.26912 15.7164 1.01979 15.5917 0.814453 15.4744L1.78245 12.7464C2.23712 12.9957 2.79445 13.223 3.45445 13.4284C4.12912 13.619 4.95045 13.7144 5.91845 13.7144Z" fill="#1B1D21"/>
<path d="M19.025 14.0444C19.3476 14.0444 19.6556 14.037 19.949 14.0224C20.2423 14.0077 20.477 13.9857 20.653 13.9564V11.4704C20.521 11.441 20.323 11.4117 20.059 11.3824C19.795 11.353 19.553 11.3384 19.333 11.3384C19.025 11.3384 18.7316 11.3604 18.453 11.4044C18.189 11.4337 17.9543 11.4997 17.749 11.6024C17.5436 11.705 17.3823 11.8444 17.265 12.0204C17.1476 12.1964 17.089 12.4164 17.089 12.6804C17.089 13.1937 17.2576 13.553 17.595 13.7584C17.947 13.949 18.4236 14.0444 19.025 14.0444ZM18.761 4.45238C19.729 4.45238 20.5356 4.56238 21.181 4.78237C21.8263 5.00237 22.3396 5.31771 22.721 5.72838C23.117 6.13904 23.3956 6.63771 23.557 7.22438C23.7183 7.81104 23.799 8.46371 23.799 9.18237V16.0024C23.3296 16.105 22.677 16.2224 21.841 16.3544C21.005 16.501 19.993 16.5744 18.805 16.5744C18.057 16.5744 17.375 16.5084 16.759 16.3764C16.1576 16.2444 15.637 16.0317 15.197 15.7384C14.757 15.4304 14.4196 15.0344 14.185 14.5504C13.9503 14.0664 13.833 13.4724 13.833 12.7684C13.833 12.0937 13.965 11.5217 14.229 11.0524C14.5076 10.583 14.8743 10.209 15.329 9.93038C15.7836 9.65171 16.3043 9.45371 16.891 9.33638C17.4776 9.20438 18.0863 9.13838 18.717 9.13838C19.1423 9.13838 19.5163 9.16038 19.839 9.20438C20.1763 9.23371 20.4476 9.27771 20.653 9.33638V9.02838C20.653 8.47104 20.4843 8.02371 20.147 7.68638C19.8096 7.34904 19.223 7.18038 18.387 7.18038C17.8296 7.18038 17.2796 7.22438 16.737 7.31238C16.1943 7.38571 15.725 7.49571 15.329 7.64238L14.911 5.00238C15.1016 4.94371 15.3363 4.88504 15.615 4.82638C15.9083 4.75304 16.2236 4.69438 16.561 4.65038C16.8983 4.59171 17.2503 4.54771 17.617 4.51838C17.9983 4.47438 18.3796 4.45238 18.761 4.45238Z" fill="#1B1D21"/>
<path d="M29.6298 16.3324C28.8818 14.8657 28.1191 13.1497 27.3418 11.1844C26.5791 9.21904 25.8531 7.07771 25.1638 4.76038H28.6398C28.7865 5.33238 28.9551 5.95571 29.1458 6.63038C29.3511 7.29038 29.5565 7.96504 29.7618 8.65438C29.9818 9.32904 30.1945 9.98904 30.3998 10.6344C30.6198 11.2797 30.8325 11.8664 31.0378 12.3944C31.2285 11.8664 31.4338 11.2797 31.6538 10.6344C31.8738 9.98904 32.0865 9.32904 32.2918 8.65438C32.5118 7.96504 32.7171 7.29038 32.9078 6.63038C33.1131 5.95571 33.2891 5.33238 33.4358 4.76038H36.8238C36.1345 7.07771 35.4011 9.21904 34.6238 11.1844C33.8611 13.1497 33.1058 14.8657 32.3578 16.3324H29.6298Z" fill="#1B1D21"/>
<path d="M37.7287 10.6344C37.7287 9.60771 37.8827 8.71304 38.1907 7.95038C38.5134 7.17304 38.9314 6.52771 39.4447 6.01438C39.9581 5.50104 40.5447 5.11238 41.2047 4.84838C41.8794 4.58438 42.5687 4.45238 43.2727 4.45238C44.9154 4.45238 46.2134 4.95838 47.1667 5.97038C48.1201 6.96771 48.5967 8.44171 48.5967 10.3924C48.5967 10.583 48.5894 10.7957 48.5747 11.0304C48.5601 11.2504 48.5454 11.4484 48.5307 11.6244H41.0947C41.1681 12.299 41.4834 12.8344 42.0407 13.2304C42.5981 13.6264 43.3461 13.8244 44.2847 13.8244C44.8861 13.8244 45.4727 13.773 46.0447 13.6704C46.6314 13.553 47.1081 13.4137 47.4747 13.2524L47.9147 15.9144C47.7387 16.0024 47.5041 16.0904 47.2107 16.1784C46.9174 16.2664 46.5874 16.3397 46.2207 16.3984C45.8687 16.4717 45.4874 16.5304 45.0767 16.5744C44.6661 16.6184 44.2554 16.6404 43.8447 16.6404C42.8034 16.6404 41.8941 16.4864 41.1167 16.1784C40.3541 15.8704 39.7161 15.4524 39.2027 14.9244C38.7041 14.3817 38.3301 13.7437 38.0807 13.0104C37.8461 12.277 37.7287 11.485 37.7287 10.6344ZM45.4287 9.38037C45.4141 9.10171 45.3627 8.83038 45.2747 8.56638C45.2014 8.30238 45.0767 8.06771 44.9007 7.86238C44.7394 7.65704 44.5267 7.48838 44.2627 7.35638C44.0134 7.22438 43.6981 7.15838 43.3167 7.15838C42.9501 7.15838 42.6347 7.22438 42.3707 7.35638C42.1067 7.47371 41.8867 7.63504 41.7107 7.84038C41.5347 8.04571 41.3954 8.28771 41.2927 8.56638C41.2047 8.83038 41.1387 9.10171 41.0947 9.38037H45.4287Z" fill="#1B1D21"/>
<path d="M61.9504 10.5244C61.9504 11.4337 61.8184 12.2697 61.5544 13.0324C61.2904 13.7804 60.9091 14.4257 60.4104 14.9684C59.9117 15.4964 59.3104 15.907 58.6064 16.2004C57.9171 16.4937 57.1397 16.6404 56.2744 16.6404C55.4237 16.6404 54.6464 16.4937 53.9424 16.2004C53.2531 15.907 52.6591 15.4964 52.1604 14.9684C51.6617 14.4257 51.2731 13.7804 50.9944 13.0324C50.7157 12.2697 50.5764 11.4337 50.5764 10.5244C50.5764 9.61504 50.7157 8.78638 50.9944 8.03838C51.2877 7.29038 51.6837 6.65238 52.1824 6.12438C52.6957 5.59638 53.2971 5.18571 53.9864 4.89238C54.6904 4.59904 55.4531 4.45238 56.2744 4.45238C57.1104 4.45238 57.8731 4.59904 58.5624 4.89238C59.2664 5.18571 59.8677 5.59638 60.3664 6.12438C60.8651 6.65238 61.2537 7.29038 61.5324 8.03838C61.8111 8.78638 61.9504 9.61504 61.9504 10.5244ZM58.6064 10.5244C58.6064 9.51238 58.4011 8.72038 57.9904 8.14838C57.5944 7.56171 57.0224 7.26837 56.2744 7.26837C55.5264 7.26837 54.9471 7.56171 54.5364 8.14838C54.1257 8.72038 53.9204 9.51238 53.9204 10.5244C53.9204 11.5364 54.1257 12.343 54.5364 12.9444C54.9471 13.531 55.5264 13.8244 56.2744 13.8244C57.0224 13.8244 57.5944 13.531 57.9904 12.9444C58.4011 12.343 58.6064 11.5364 58.6064 10.5244Z" fill="#1B1D21"/>
<path d="M71.4637 7.66438C71.1703 7.59104 70.8257 7.51771 70.4297 7.44438C70.0337 7.35638 69.6083 7.31238 69.1537 7.31238C68.9483 7.31238 68.699 7.33438 68.4057 7.37838C68.127 7.40771 67.9143 7.44438 67.7677 7.48838V16.3324H64.4897V5.37638C65.0763 5.17104 65.7657 4.98038 66.5577 4.80438C67.3643 4.61371 68.259 4.51838 69.2417 4.51838C69.4177 4.51838 69.6303 4.53304 69.8797 4.56238C70.129 4.57704 70.3783 4.60638 70.6277 4.65038C70.877 4.67971 71.1263 4.72371 71.3757 4.78237C71.625 4.82638 71.8377 4.88504 72.0137 4.95838L71.4637 7.66438Z" fill="#1B1D21"/>
<path d="M77.9781 14.0444C78.3007 14.0444 78.6087 14.037 78.9021 14.0224C79.1954 14.0077 79.4301 13.9857 79.6061 13.9564V11.4704C79.4741 11.441 79.2761 11.4117 79.0121 11.3824C78.7481 11.353 78.5061 11.3384 78.2861 11.3384C77.9781 11.3384 77.6847 11.3604 77.4061 11.4044C77.1421 11.4337 76.9074 11.4997 76.7021 11.6024C76.4967 11.705 76.3354 11.8444 76.2181 12.0204C76.1007 12.1964 76.0421 12.4164 76.0421 12.6804C76.0421 13.1937 76.2107 13.553 76.5481 13.7584C76.9001 13.949 77.3767 14.0444 77.9781 14.0444ZM77.7141 4.45238C78.6821 4.45238 79.4887 4.56238 80.1341 4.78237C80.7794 5.00237 81.2927 5.31771 81.6741 5.72838C82.0701 6.13904 82.3487 6.63771 82.5101 7.22438C82.6714 7.81104 82.7521 8.46371 82.7521 9.18237V16.0024C82.2827 16.105 81.6301 16.2224 80.7941 16.3544C79.9581 16.501 78.9461 16.5744 77.7581 16.5744C77.0101 16.5744 76.3281 16.5084 75.7121 16.3764C75.1107 16.2444 74.5901 16.0317 74.1501 15.7384C73.7101 15.4304 73.3727 15.0344 73.1381 14.5504C72.9034 14.0664 72.7861 13.4724 72.7861 12.7684C72.7861 12.0937 72.9181 11.5217 73.1821 11.0524C73.4607 10.583 73.8274 10.209 74.2821 9.93038C74.7367 9.65171 75.2574 9.45371 75.8441 9.33638C76.4307 9.20438 77.0394 9.13838 77.6701 9.13838C78.0954 9.13838 78.4694 9.16038 78.7921 9.20438C79.1294 9.23371 79.4007 9.27771 79.6061 9.33638V9.02838C79.6061 8.47104 79.4374 8.02371 79.1001 7.68638C78.7627 7.34904 78.1761 7.18038 77.3401 7.18038C76.7827 7.18038 76.2327 7.22438 75.6901 7.31238C75.1474 7.38571 74.6781 7.49571 74.2821 7.64238L73.8641 5.00238C74.0547 4.94371 74.2894 4.88504 74.5681 4.82638C74.8614 4.75304 75.1767 4.69438 75.5141 4.65038C75.8514 4.59171 76.2034 4.54771 76.5701 4.51838C76.9514 4.47438 77.3327 4.45238 77.7141 4.45238Z" fill="#1B1D21"/>
</svg>
