<svg width="32" height="32" viewBox="0 0 32 32" fill="none" xmlns="http://www.w3.org/2000/svg">
<g clip-path="url(#clip0_854_554)">
<path d="M31.3337 24V8C31.3337 6.89543 30.4382 6 29.3337 6H2.66699C1.56242 6 0.666992 6.89543 0.666992 8V24C0.666992 25.1045 1.56242 26 2.66699 26H29.3337C30.4382 26 31.3337 25.1045 31.3337 24Z" stroke="#666666" stroke-width="1.5" stroke-linecap="round" stroke-linejoin="round"/>
<path d="M18 20.6641H27.3333" stroke="#666666" stroke-linecap="round" stroke-linejoin="round"/>
<path d="M18 16.6641H27.3333" stroke="#666666" stroke-linecap="round" stroke-linejoin="round"/>
<path d="M18 12.6641H27.3333" stroke="#666666" stroke-linecap="round" stroke-linejoin="round"/>
<path d="M7.68576 14.931C7.63008 14.9351 7.57427 14.9373 7.51844 14.9374C7.2378 14.9382 6.95976 14.8837 6.70029 14.7767C6.44083 14.6697 6.20504 14.5126 6.00649 14.3142C5.80796 14.1159 5.65056 13.8802 5.54336 13.6209C5.43616 13.3615 5.38127 13.0836 5.38184 12.8029C5.38184 12.213 5.62209 11.6788 6.00823 11.2927C6.24813 11.0513 6.54239 10.8709 6.86635 10.7666C7.19032 10.6623 7.53456 10.6371 7.87025 10.6932C8.20593 10.7493 8.52331 10.885 8.79576 11.0889C9.06823 11.2929 9.28784 11.5592 9.43623 11.8655L9.02651 12.065C8.88772 11.783 8.67308 11.5453 8.40669 11.3786C8.14029 11.2118 7.83271 11.1227 7.51844 11.1211C7.29744 11.1202 7.07847 11.1632 6.87415 11.2474C6.66984 11.3317 6.48424 11.4555 6.32807 11.6119C6.17189 11.7683 6.04824 11.954 5.96427 12.1585C5.88028 12.3629 5.83763 12.5819 5.83876 12.8029C5.83795 13.0349 5.88539 13.2645 5.97805 13.4771C6.07073 13.6898 6.20661 13.8809 6.37707 14.0382C6.54752 14.1955 6.74884 14.3158 6.96823 14.3911C7.1876 14.4666 7.42027 14.4955 7.65144 14.4762L7.68576 14.931Z" fill="#666666"/>
<path d="M8.00507 15.7136C7.62275 15.812 7.22164 15.8109 6.83983 15.7107C6.45801 15.6104 6.10813 15.4143 5.82341 15.1409C5.4716 15.3619 5.17771 15.6557 4.95032 16.0032C4.69284 16.4079 4.52464 16.8628 4.45692 17.3376L4.45049 17.3783L4 17.3075L4.00429 17.2711C4.09009 16.7048 4.28316 16.192 4.56633 15.7565C4.85379 15.3168 5.23133 14.9543 5.68612 14.6904H5.68827L5.74833 14.6561L5.90492 14.566L6.0272 14.6947L6.0744 14.7461C6.27664 14.9576 6.52547 15.1189 6.80107 15.2173C7.07667 15.3156 7.37141 15.3483 7.66184 15.3125C7.73917 15.3031 7.81584 15.2887 7.89137 15.2696L8.00507 15.7136ZM10.723 17.3612C10.3754 17.3613 10.0313 17.2928 9.71024 17.1595C9.38923 17.0263 9.09769 16.8309 8.85241 16.5847C8.60563 16.3393 8.40976 16.0477 8.27611 15.7265C8.14247 15.4053 8.07365 15.0608 8.07365 14.7129C8.07365 14.3651 8.14247 14.0205 8.27611 13.6993C8.40976 13.3781 8.60563 13.0865 8.85241 12.8412C9.09764 12.5945 9.38925 12.3986 9.71048 12.265C10.0317 12.1313 10.3762 12.0625 10.7241 12.0625C11.072 12.0625 11.4165 12.1313 11.7377 12.265C12.0589 12.3986 12.3505 12.5945 12.5958 12.8412C12.8426 13.0865 13.0384 13.3781 13.1721 13.6993C13.3057 14.0205 13.3745 14.3651 13.3745 14.7129C13.3745 15.0608 13.3057 15.4053 13.1721 15.7265C13.0384 16.0477 12.8426 16.3393 12.5958 16.5847C12.3502 16.8311 12.0584 17.0267 11.7369 17.1599C11.4155 17.2932 11.071 17.3616 10.723 17.3612ZM9.17848 16.2649C9.3814 16.4688 9.62259 16.6305 9.8882 16.7409C10.1538 16.8513 10.4386 16.9081 10.7262 16.9081C11.0139 16.9081 11.2987 16.8513 11.5643 16.7409C11.8299 16.6305 12.0711 16.4688 12.274 16.2649C12.5821 15.9592 12.7923 15.5687 12.8779 15.1431C12.9634 14.7175 12.9205 14.276 12.7544 13.8749C12.5883 13.4737 12.3067 13.1311 11.9454 12.8905C11.584 12.6499 11.1593 12.5223 10.7252 12.5238C10.4373 12.5232 10.1522 12.5796 9.88615 12.6896C9.62015 12.7996 9.37852 12.9611 9.17516 13.1649C8.97181 13.3687 8.81075 13.6105 8.70124 13.8768C8.59173 14.1431 8.53593 14.4283 8.53707 14.7161C8.53707 15.3189 8.78163 15.8681 9.17848 16.2649Z" fill="#666666"/>
<path d="M8.77919 20.878H14.5347C14.5542 20.2121 14.4106 19.5515 14.1165 18.9537C13.8037 18.3612 13.33 17.8691 12.7499 17.5336C12.21 18.0675 11.482 18.3679 10.7227 18.3703C9.96295 18.3705 9.23402 18.0696 8.69552 17.5336C8.4438 17.6869 8.20871 17.8659 7.99406 18.0677L7.67871 17.7396C7.93908 17.4891 8.23031 17.2728 8.54536 17.096V17.0939L8.62259 17.0509L8.77919 16.9609L8.90147 17.0896L8.96154 17.154C9.18895 17.3923 9.46219 17.5823 9.76483 17.7124C10.0675 17.8424 10.3933 17.9101 10.7227 17.9112C11.0524 17.9119 11.3788 17.8451 11.6817 17.7148C11.9846 17.5845 12.2576 17.3937 12.4839 17.154H12.4861L12.5504 17.0896L12.6727 16.9609L12.8272 17.0509L12.9022 17.0939C13.6574 17.5293 14.1851 18.0913 14.5219 18.7457C14.8866 19.4472 15.0238 20.2516 14.9853 21.1183L14.9745 21.3371H8.77919V20.878Z" fill="#666666"/>
<path d="M6.09273 17.3104L4.98797 18.3658H5.57145L5.60149 18.561C5.6563 19.0068 5.82752 19.4301 6.09789 19.7886C6.36828 20.147 6.72829 20.4281 7.14173 20.6033C7.04017 20.466 6.95182 20.3196 6.87788 20.1657C6.65341 19.6733 6.5441 19.1362 6.55824 18.5954V18.3658H7.1975L6.09273 17.3104ZM4.26074 18.4281L5.93613 16.8298L6.09273 16.6797L6.25148 16.8298L7.92472 18.4281L7.76812 18.8228H7.0216C7.04305 19.2625 7.131 19.6401 7.2876 19.9682C7.46994 20.3458 7.75096 20.659 8.13494 20.9208L7.96333 21.3348C7.27044 21.2017 6.57325 20.9208 6.0391 20.4124C5.59564 19.985 5.29644 19.4302 5.18317 18.8249H4.41949L4.26074 18.4281Z" fill="#666666"/>
</g>
<defs>
<clipPath id="clip0_854_554">
<rect width="32" height="32" fill="white"/>
</clipPath>
</defs>
</svg>
