<svg width="36" height="35" viewBox="0 0 36 35" fill="none" xmlns="http://www.w3.org/2000/svg">
<g id="twitter">
<path id="Twitter" fill-rule="evenodd" clip-rule="evenodd" d="M0.701172 17.5044C0.701172 7.98801 8.42138 0.273438 17.9447 0.273438C27.4681 0.273438 35.1883 7.98801 35.1883 17.5044C35.1883 27.0208 27.4681 34.7354 17.9447 34.7354C8.42138 34.7354 0.701172 27.0208 0.701172 17.5044Z" fill="#1DA1F2"/>
<path id="Path" fill-rule="evenodd" clip-rule="evenodd" d="M17.4611 14.7329L17.4931 15.2598L16.9609 15.1953C15.0237 14.948 13.3314 14.1092 11.8945 12.7005L11.192 12.0015L11.0111 12.5177C10.6279 13.6683 10.8727 14.8835 11.671 15.7007C12.0967 16.1524 12.0009 16.2169 11.2665 15.9481C11.0111 15.862 10.7876 15.7975 10.7663 15.8298C10.6918 15.905 10.9472 16.8836 11.1494 17.2707C11.4262 17.8084 11.9903 18.3353 12.6076 18.6472L13.1292 18.8945L12.5118 18.9053C11.9158 18.9053 11.8945 18.916 11.9584 19.1419C12.1712 19.8408 13.0121 20.5828 13.9487 20.9055L14.6086 21.1313L14.0339 21.4754C13.1824 21.9701 12.1819 22.2496 11.1814 22.2712C10.7024 22.2819 10.3086 22.3249 10.3086 22.3572C10.3086 22.4647 11.6071 23.0669 12.3628 23.3035C14.6299 24.0025 17.3228 23.7014 19.345 22.5077C20.7819 21.6582 22.2188 19.9699 22.8894 18.3353C23.2513 17.4643 23.6131 15.8728 23.6131 15.1093C23.6131 14.6146 23.6451 14.5501 24.2411 13.9586C24.5924 13.6145 24.9223 13.2382 24.9862 13.1306C25.0926 12.9263 25.082 12.9263 24.5391 13.1091C23.6344 13.4317 23.5067 13.3887 23.9537 12.9048C24.2837 12.5607 24.6775 11.937 24.6775 11.7542C24.6775 11.7219 24.5179 11.7757 24.3369 11.8725C24.1453 11.98 23.7196 12.1413 23.4003 12.2381L22.8255 12.4209L22.304 12.066C22.0166 11.8725 21.6121 11.6574 21.3993 11.5929C20.8564 11.4423 20.0262 11.4638 19.5366 11.6359C18.2062 12.1198 17.3653 13.3672 17.4611 14.7329Z" fill="white"/>
</g>
</svg>
