<svg width="36" height="35" viewBox="0 0 36 35" fill="none" xmlns="http://www.w3.org/2000/svg">
<g id="youtube">
<path id="YouTube" fill-rule="evenodd" clip-rule="evenodd" d="M0.642578 17.5044C0.642578 7.98801 8.36279 0.273438 17.8862 0.273438C27.4095 0.273438 35.1297 7.98801 35.1297 17.5044C35.1297 27.0208 27.4095 34.7354 17.8862 34.7354C8.36279 34.7354 0.642578 27.0208 0.642578 17.5044Z" fill="#FF0000"/>
<path id="youtube_2" fill-rule="evenodd" clip-rule="evenodd" d="M21.3506 18.1404L16.4864 20.4979C16.3567 20.5607 16.207 20.4647 16.207 20.3188V15.4565C16.207 15.3085 16.3607 15.2126 16.4906 15.2795L21.3548 17.7843C21.4994 17.8588 21.4969 18.0696 21.3506 18.1404ZM13.037 11.5C11.0566 11.5 9.45117 13.0798 9.45117 15.0285V19.9937C9.45117 21.9424 11.0566 23.5221 13.037 23.5221H23.1309C25.1113 23.5221 26.7168 21.9424 26.7168 19.9937V15.0285C26.7168 13.0798 25.1113 11.5 23.1309 11.5H13.037Z" fill="white"/>
</g>
</svg>
