<svg width="28" height="29" viewBox="0 0 28 29" fill="none" xmlns="http://www.w3.org/2000/svg">
<circle cx="14" cy="14.0078" r="13.5" stroke="#1B1D21"/>
<g clip-path="url(#clip0_356_2285)">
<path fill-rule="evenodd" clip-rule="evenodd" d="M19.833 14.8385C19.813 14.8385 19.7943 14.834 19.7743 14.8327C19.664 15.654 19.3914 16.4452 18.9722 17.16C18.5531 17.8749 17.9959 18.4992 17.333 18.9965V21.9219C17.333 22.3639 17.1574 22.7878 16.8449 23.1004C16.5323 23.4129 16.1084 23.5885 15.6663 23.5885H11.4997C11.0576 23.5885 10.6337 23.4129 10.3212 23.1004C10.0086 22.7878 9.83301 22.3639 9.83301 21.9219V18.9965C8.31759 17.856 7.33301 16.0477 7.33301 14.0052C7.33301 11.9623 8.31759 10.154 9.83301 9.01396V6.08854C9.83301 5.64651 10.0086 5.22259 10.3212 4.91003C10.6337 4.59747 11.0576 4.42188 11.4997 4.42188H15.6663C16.1084 4.42188 16.5323 4.59747 16.8449 4.91003C17.1574 5.22259 17.333 5.64651 17.333 6.08854V9.01396C17.9959 9.51119 18.5532 10.1355 18.9724 10.8503C19.3915 11.5652 19.6641 12.3564 19.7743 13.1777C19.7943 13.1765 19.813 13.1719 19.833 13.1719C20.054 13.1719 20.266 13.2597 20.4223 13.416C20.5785 13.5722 20.6663 13.7842 20.6663 14.0052C20.6663 14.2262 20.5785 14.4382 20.4223 14.5945C20.266 14.7507 20.054 14.8385 19.833 14.8385ZM10.6663 21.9219C10.6663 22.1429 10.7541 22.3549 10.9104 22.5111C11.0667 22.6674 11.2787 22.7552 11.4997 22.7552H15.6663C15.8874 22.7552 16.0993 22.6674 16.2556 22.5111C16.4119 22.3549 16.4997 22.1429 16.4997 21.9219V19.531C15.6284 19.9915 14.6368 20.2552 13.583 20.2552C12.5293 20.2552 11.5376 19.9915 10.6663 19.531V21.9219ZM16.4997 6.08854C16.4997 5.86753 16.4119 5.65557 16.2556 5.49929C16.0993 5.34301 15.8874 5.25521 15.6663 5.25521H11.4997C11.2787 5.25521 11.0667 5.34301 10.9104 5.49929C10.7541 5.65557 10.6663 5.86753 10.6663 6.08854V8.47937C11.5376 8.01854 12.5293 7.75521 13.583 7.75521C14.6368 7.75521 15.6284 8.01854 16.4997 8.47937V6.08854ZM13.583 8.58854C10.5913 8.58854 8.16634 11.0135 8.16634 14.0052C8.16634 16.9969 10.5913 19.4219 13.583 19.4219C16.5747 19.4219 18.9997 16.9969 18.9997 14.0052C18.9997 11.0135 16.5747 8.58854 13.583 8.58854ZM13.9997 15.1785V17.7552C13.9997 17.8657 13.9558 17.9717 13.8776 18.0498C13.7995 18.128 13.6935 18.1719 13.583 18.1719C13.4725 18.1719 13.3665 18.128 13.2884 18.0498C13.2102 17.9717 13.1663 17.8657 13.1663 17.7552V15.1785C12.9232 15.0931 12.7125 14.9344 12.5633 14.7243C12.414 14.5141 12.3336 14.2629 12.333 14.0052C12.333 13.809 12.3822 13.626 12.463 13.4602L11.2022 12.1994C11.1298 12.1223 11.0903 12.0201 11.0919 11.9143C11.0936 11.8086 11.1363 11.7077 11.2111 11.6329C11.2859 11.5581 11.3868 11.5154 11.4925 11.5137C11.5983 11.512 11.7005 11.5516 11.7776 11.624L13.0384 12.8848C13.2077 12.8006 13.394 12.7563 13.583 12.7552C13.9145 12.7552 14.2325 12.8869 14.4669 13.1213C14.7013 13.3557 14.833 13.6737 14.833 14.0052C14.8325 14.263 14.7522 14.5142 14.6029 14.7244C14.4536 14.9345 14.2429 15.0932 13.9997 15.1785ZM13.583 13.5885C13.4725 13.5885 13.3665 13.6324 13.2884 13.7106C13.2102 13.7887 13.1663 13.8947 13.1663 14.0052C13.1663 14.1157 13.2102 14.2217 13.2884 14.2998C13.3665 14.378 13.4725 14.4219 13.583 14.4219C13.6935 14.4219 13.7995 14.378 13.8776 14.2998C13.9558 14.2217 13.9997 14.1157 13.9997 14.0052C13.9997 13.8947 13.9558 13.7887 13.8776 13.7106C13.7995 13.6324 13.6935 13.5885 13.583 13.5885Z" fill="#1B1D21"/>
</g>
<defs>
<clipPath id="clip0_356_2285">
<rect width="20" height="20" fill="white" transform="translate(4 4.00781)"/>
</clipPath>
</defs>
</svg>
