<svg width="28" height="29" viewBox="0 0 28 29" fill="none" xmlns="http://www.w3.org/2000/svg">
<circle cx="14" cy="14.0078" r="13.5" stroke="#1B1D21"/>
<path d="M9.50001 21.0109H12.5C12.8 21.0109 13 20.8109 13 20.5109V17.6109C13 17.3109 13.3 17.0109 13.6 17.0109H14.4C14.7 17.0109 15 17.3109 15 17.6109V20.5109C15 20.8109 15.2 21.0109 15.5 21.0109H18.5C18.8 21.0109 19 20.8109 19 20.5109V13.5109C19 13.2109 18.8 13.0109 18.5 13.0109H9.50001C9.20001 13.0109 9.00001 13.2109 9.00001 13.5109V20.5109C9.00001 20.8109 9.20001 21.0109 9.50001 21.0109ZM8.20001 12.1109L13.6 7.11094C13.8 6.91094 14.2 6.91094 14.4 7.11094L19.8 12.1109C20.2 12.5109 19.9 13.0109 19.4 13.0109H8.60001C8.10001 13.0109 7.80001 12.5109 8.20001 12.1109V12.1109Z" stroke="#1B1D21" stroke-miterlimit="10"/>
</svg>
