<svg width="28" height="29" viewBox="0 0 28 29" fill="none" xmlns="http://www.w3.org/2000/svg">
<g clip-path="url(#clip0_356_2362)">
<path d="M14 0.0078125C6.274 0.0078125 0 6.28181 0 14.0078C0 21.7338 6.274 28.0078 14 28.0078C21.726 28.0078 28 21.7338 28 14.0078C28 6.28181 21.726 0.0078125 14 0.0078125ZM14 1.00781C21.186 1.00781 27 6.82181 27 14.0078C27 21.1938 21.186 27.0078 14 27.0078C6.814 27.0078 1 21.1938 1 14.0078C1 6.82181 6.814 1.00781 14 1.00781ZM10.8 6.50781C9.567 6.50781 8.552 7.40181 8.31 8.60981C8.3089 8.61546 8.3079 8.62113 8.307 8.62681L7.676 12.5078H8C7.122 12.5078 6.5 13.2408 6.5 14.0078V18.0078C6.5 18.4188 6.646 18.8098 6.922 19.0858C7.198 19.3618 7.589 19.5078 8 19.5078H8.5V20.0078C8.5 20.4248 8.693 20.7828 8.959 21.0488C9.225 21.3148 9.583 21.5078 10 21.5078C10.767 21.5078 11.5 20.8858 11.5 20.0078V19.5078H16.5V20.0078C16.5 20.4248 16.693 20.7828 16.959 21.0488C17.225 21.3148 17.583 21.5078 18 21.5078C18.767 21.5078 19.5 20.8858 19.5 20.0078V19.5078H20C20.411 19.5078 20.802 19.3618 21.078 19.0858C21.354 18.8098 21.5 18.4188 21.5 18.0078V14.0078C21.5 13.5908 21.307 13.2328 21.041 12.9668C20.775 12.7008 20.417 12.5078 20 12.5078H20.225L19.594 8.62781C19.5928 8.62179 19.5914 8.61579 19.59 8.60981C19.348 7.40181 18.333 6.50781 17.1 6.50781H10.8ZM10.8 7.50781H17.1C17.866 7.50781 18.45 8.01381 18.61 8.80681L19.307 13.0878C19.326 13.2051 19.3862 13.3118 19.4767 13.3887C19.5672 13.4657 19.6822 13.5079 19.801 13.5078H20C20.083 13.5078 20.225 13.5648 20.334 13.6738C20.443 13.7828 20.5 13.9238 20.5 14.0078V18.0078C20.5 18.1968 20.445 18.3048 20.371 18.3788C20.297 18.4528 20.189 18.5078 20 18.5078H19C18.8674 18.5078 18.7402 18.5605 18.6464 18.6543C18.5527 18.748 18.5 18.8752 18.5 19.0078V20.0078C18.5 20.3298 18.233 20.5078 18 20.5078C17.8726 20.4936 17.7543 20.4348 17.666 20.3418C17.573 20.2535 17.5142 20.1352 17.5 20.0078V19.0078C17.5 18.8752 17.4473 18.748 17.3536 18.6543C17.2598 18.5605 17.1326 18.5078 17 18.5078H11C10.8674 18.5078 10.7402 18.5605 10.6464 18.6543C10.5527 18.748 10.5 18.8752 10.5 19.0078V20.0078C10.5 20.3298 10.233 20.5078 10 20.5078C9.87258 20.4936 9.75429 20.4348 9.666 20.3418C9.57304 20.2535 9.51425 20.1352 9.5 20.0078V19.0078C9.5 18.8752 9.44732 18.748 9.35355 18.6543C9.25979 18.5605 9.13261 18.5078 9 18.5078H8C7.811 18.5078 7.703 18.4528 7.629 18.3788C7.555 18.3048 7.5 18.1968 7.5 18.0078V14.0078C7.5 13.7748 7.678 13.5078 8 13.5078H8.1C8.21882 13.5079 8.33379 13.4657 8.42431 13.3887C8.51483 13.3118 8.57499 13.2051 8.594 13.0878L9.29 8.80781C9.449 8.01481 10.033 7.50781 10.8 7.50781ZM10.8 8.50781C10.6822 8.50771 10.5682 8.54918 10.478 8.62491C10.3878 8.70065 10.3273 8.80579 10.307 8.92181L9.607 12.9218C9.59445 12.9937 9.59778 13.0675 9.61678 13.1379C9.63577 13.2084 9.66996 13.2739 9.71694 13.3297C9.76392 13.3855 9.82256 13.4304 9.88874 13.4612C9.95491 13.492 10.027 13.5079 10.1 13.5078H17.8C17.873 13.5079 17.9451 13.492 18.0113 13.4612C18.0774 13.4304 18.1361 13.3855 18.1831 13.3297C18.23 13.2739 18.2642 13.2084 18.2832 13.1379C18.3022 13.0675 18.3056 12.9937 18.293 12.9218L17.592 8.92181C17.5718 8.80596 17.5114 8.70095 17.4214 8.62524C17.3314 8.54952 17.2176 8.50794 17.1 8.50781H10.8ZM11.22 9.50781H16.68L17.205 12.5078H10.695L11.22 9.50781ZM10 14.5078C9.589 14.5078 9.198 14.6538 8.922 14.9298C8.64427 15.2192 8.49253 15.6068 8.5 16.0078C8.5 16.4188 8.646 16.8098 8.922 17.0858C9.198 17.3618 9.589 17.5078 10 17.5078C10.767 17.5078 11.5 16.8858 11.5 16.0078C11.5 15.5968 11.354 15.2058 11.078 14.9298C10.7886 14.6521 10.401 14.5003 10 14.5078ZM18 14.5078C17.589 14.5078 17.198 14.6538 16.922 14.9298C16.6443 15.2192 16.4925 15.6068 16.5 16.0078C16.5 16.4188 16.646 16.8098 16.922 17.0858C17.198 17.3618 17.589 17.5078 18 17.5078C18.767 17.5078 19.5 16.8858 19.5 16.0078C19.5 15.5968 19.354 15.2058 19.078 14.9298C18.7886 14.6521 18.401 14.5003 18 14.5078ZM10 15.5078C10.189 15.5078 10.297 15.5628 10.371 15.6368C10.445 15.7108 10.5 15.8188 10.5 16.0078C10.5 16.3298 10.233 16.5078 10 16.5078C9.811 16.5078 9.703 16.4528 9.629 16.3788C9.555 16.3048 9.5 16.1968 9.5 16.0078C9.5 15.8188 9.555 15.7108 9.629 15.6368C9.703 15.5628 9.811 15.5078 10 15.5078ZM18 15.5078C18.189 15.5078 18.297 15.5628 18.371 15.6368C18.445 15.7108 18.5 15.8188 18.5 16.0078C18.5 16.3298 18.233 16.5078 18 16.5078C17.811 16.5078 17.703 16.4528 17.629 16.3788C17.555 16.3048 17.5 16.1968 17.5 16.0078C17.5 15.8188 17.555 15.7108 17.629 15.6368C17.703 15.5628 17.811 15.5078 18 15.5078Z" fill="#1B1D21"/>
</g>
<defs>
<clipPath id="clip0_356_2362">
<rect width="28" height="28" fill="white" transform="translate(0 0.0078125)"/>
</clipPath>
</defs>
</svg>
