<svg width="28" height="29" viewBox="0 0 28 29" fill="none" xmlns="http://www.w3.org/2000/svg">
<circle cx="14" cy="14.0078" r="13.5" stroke="#1B1D21"/>
<path d="M17.4002 17.0062C16.5002 18.0062 15.3002 18.5062 14.0002 18.5062C12.7002 18.5062 11.5002 17.9062 10.6002 17.0062C10.4002 16.8062 10.4002 16.5063 10.6002 16.3063C10.8002 16.1063 11.1002 16.1063 11.3002 16.3063C12.0002 17.1063 13.0002 17.5062 14.0002 17.5062C15.0002 17.5062 16.0002 17.1063 16.6002 16.3063C16.8002 16.1063 17.1002 16.1063 17.3002 16.3063C17.5002 16.5063 17.5002 16.8062 17.4002 17.0062Z" fill="#1B1D21"/>
<path d="M14 7.00781C10.1 7.00781 7 10.1078 7 14.0078C7 17.9078 10.1 21.0078 14 21.0078C17.9 21.0078 21 17.9078 21 14.0078C21 10.1078 17.9 7.00781 14 7.00781ZM10 12.0078C10 11.4078 10.4 11.0078 11 11.0078C11.6 11.0078 12 11.4078 12 12.0078C12 12.6078 11.6 13.0078 11 13.0078C10.4 13.0078 10 12.6078 10 12.0078ZM17 13.0078C16.4 13.0078 16 12.6078 16 12.0078C16 11.4078 16.4 11.0078 17 11.0078C17.6 11.0078 18 11.4078 18 12.0078C18 12.6078 17.5 13.0078 17 13.0078Z" stroke="#1B1D21" stroke-miterlimit="10"/>
</svg>
