<svg width="36" height="37" viewBox="0 0 36 37" fill="none" xmlns="http://www.w3.org/2000/svg">
<path fill-rule="evenodd" clip-rule="evenodd" d="M17.8949 6.00781C11.3061 6.00781 5.96484 11.3804 5.96484 18.0078C5.96484 24.6352 11.3061 30.0078 17.8949 30.0078C24.4836 30.0078 29.8249 24.6352 29.8249 18.0078C29.8249 11.3804 24.4836 6.00781 17.8949 6.00781ZM16.076 14.5873C15.6392 14.148 14.9311 14.148 14.4943 14.5873C14.0575 15.0267 14.0575 15.739 14.4943 16.1783L16.3131 18.0078L14.4943 19.8373C14.0575 20.2767 14.0575 20.989 14.4943 21.4283C14.9311 21.8676 15.6392 21.8676 16.076 21.4283L17.8949 19.5988L19.7137 21.4283C20.1505 21.8676 20.8586 21.8676 21.2954 21.4283C21.7322 20.989 21.7322 20.2767 21.2954 19.8373L19.4766 18.0078L21.2954 16.1783C21.7322 15.739 21.7322 15.0267 21.2954 14.5873C20.8586 14.148 20.1505 14.148 19.7137 14.5873L17.8949 16.4168L16.076 14.5873Z" fill="#E02D3C"/>
</svg>
