<svg width="28" height="29" viewBox="0 0 28 29" fill="none" xmlns="http://www.w3.org/2000/svg">
<circle cx="14" cy="14.0078" r="13.5" stroke="#1B1D21"/>
<g clip-path="url(#clip0_356_2302)">
<path d="M11.4554 23.3836H8.39781C7.61053 23.3836 6.96973 22.7428 6.96973 21.9555V11.666C6.96973 11.4234 7.16655 11.2266 7.40914 11.2266H13.0482C13.2908 11.2266 13.4876 11.4234 13.4876 11.666V17.11C13.4876 17.3526 13.2914 17.5494 13.0488 17.5494C12.0355 17.5505 11.1109 18.1318 10.6681 19.0381V21.7175C10.6681 22.1517 11.0211 22.5048 11.4554 22.5048C11.698 22.5048 11.8948 22.7016 11.8948 22.9442C11.8948 23.1868 11.698 23.3836 11.4554 23.3836ZM7.84855 12.1054V21.9555C7.84855 22.2582 8.09514 22.5048 8.39781 22.5048H9.98724C9.86079 22.2702 9.78927 22.0018 9.78927 21.7175V18.9408C9.78927 18.879 9.80243 18.8178 9.82761 18.7618C10.334 17.6278 11.397 16.8519 12.6088 16.6986V12.1054H7.84855Z" fill="#1B1D21"/>
<path d="M12.1695 12.1012H8.28804C8.04545 12.1012 7.84863 11.9043 7.84863 11.6617V8.43941C7.84863 8.19682 8.04545 8 8.28804 8H12.1695C12.4121 8 12.6089 8.19682 12.6089 8.43941V11.6617C12.6089 11.9043 12.4121 12.1012 12.1695 12.1012ZM8.72745 11.2223H11.7301V8.87882H8.72745V11.2223Z" fill="#1B1D21"/>
<path d="M11.4188 8.88077H9.03862C8.79602 8.88077 8.59921 8.68395 8.59921 8.44136V5.07255C8.59921 4.92093 8.67759 4.77961 8.80632 4.69951C8.93506 4.61883 9.0964 4.61082 9.23257 4.67834L10.4684 5.28653C11.3255 5.70878 11.8582 6.56471 11.8582 7.51963V8.44136C11.8582 8.68395 11.6613 8.88077 11.4188 8.88077ZM9.47803 8.00195H10.9793V7.51963C10.9793 6.90171 10.6349 6.34787 10.0805 6.07495L9.47803 5.77858V8.00195ZM13.0482 16.3324H7.40914C7.16655 16.3324 6.96973 16.1356 6.96973 15.893V14.3185C6.96973 14.0759 7.16655 13.8791 7.40914 13.8791H13.0482C13.2908 13.8791 13.4876 14.0759 13.4876 14.3185V15.893C13.4876 16.1356 13.2908 16.3324 13.0482 16.3324ZM7.84855 15.4536H12.6088V14.7579H7.84855V15.4536ZM19.3648 23.3813H11.4554C10.5365 23.3813 9.78927 22.6341 9.78927 21.7152V18.9386C9.78927 18.696 9.98609 18.4992 10.2287 18.4992H20.5914C20.834 18.4992 21.0308 18.696 21.0308 18.9386V21.7152C21.0308 22.6341 20.2836 23.3813 19.3648 23.3813ZM10.6681 19.378V21.7152C10.6681 22.1495 11.0211 22.5025 11.4554 22.5025H19.3648C19.799 22.5025 20.152 22.1495 20.152 21.7152V19.378H10.6681Z" fill="#1B1D21"/>
<path d="M20.5911 19.3816H10.2284C10.0796 19.3816 9.94057 19.306 9.85989 19.1813C9.77865 19.0566 9.76663 18.8992 9.82728 18.7631C10.3943 17.4929 11.6599 16.6719 13.0513 16.6719H17.7681C19.1596 16.6719 20.4252 17.4929 20.9922 18.7631C21.0528 18.8992 21.0408 19.0566 20.9596 19.1813C20.8789 19.306 20.7399 19.3816 20.5911 19.3816ZM11.0156 18.5027H19.8038C19.3078 17.9094 18.5651 17.5507 17.7681 17.5507H13.0513C12.2543 17.5507 11.5117 17.9094 11.0156 18.5027Z" fill="#1B1D21"/>
</g>
<defs>
<clipPath id="clip0_356_2302">
<rect width="20" height="20" fill="white" transform="translate(4 4.00781)"/>
</clipPath>
</defs>
</svg>
