<svg width="28" height="29" viewBox="0 0 28 29" fill="none" xmlns="http://www.w3.org/2000/svg">
<circle cx="14" cy="14.0078" r="13.5" stroke="#1B1D21"/>
<path d="M9 19.5078C9.82843 19.5078 10.5 18.8362 10.5 18.0078C10.5 17.1794 9.82843 16.5078 9 16.5078C8.17157 16.5078 7.5 17.1794 7.5 18.0078C7.5 18.8362 8.17157 19.5078 9 19.5078Z" stroke="#1B1D21" stroke-miterlimit="10"/>
<path d="M17 17.5078C17.8284 17.5078 18.5 16.8362 18.5 16.0078C18.5 15.1794 17.8284 14.5078 17 14.5078C16.1716 14.5078 15.5 15.1794 15.5 16.0078C15.5 16.8362 16.1716 17.5078 17 17.5078Z" stroke="#1B1D21" stroke-miterlimit="10"/>
<path d="M18.5 16.0078V6.50781L10.5 8.50781V18.0078M18.5 10.0078L10.5 12.0078" stroke="#1B1D21" stroke-miterlimit="10" stroke-linecap="round" stroke-linejoin="round"/>
</svg>
