<svg width="28" height="29" viewBox="0 0 28 29" fill="none" xmlns="http://www.w3.org/2000/svg">
<circle cx="14" cy="14.0078" r="13.5" stroke="#1B1D21"/>
<path d="M13.6 15.8094L17.5 19.7094C17.9 20.1094 18.5 20.1094 18.9 19.7094C19.3 19.3094 19.3 18.7094 18.9 18.3094L15 14.4094M13.6 12.9094L11.9 11.2094L10.5 12.6094L12.2 14.4094M12.7 10.4094L9.6 13.4094C9.3 13.7094 8.8 13.7094 8.4 13.4094L8.2 13.2094C8.1 13.0094 8 12.8094 8 12.6094V11.2094C8 11.0094 8.1 10.8094 8.2 10.6094L10.6 8.20938C10.9 7.90937 11.4 7.90937 11.8 8.20938L12.8 9.20938C13 9.50938 13 10.0094 12.7 10.4094V10.4094ZM8.6 16.6094C7.8 17.4094 7.8 18.6094 8.6 19.4094C9.4 20.2094 10.6 20.2094 11.4 19.4094C12.2 18.6094 12.2 17.4094 11.4 16.6094C10.6 15.8094 9.4 15.8094 8.6 16.6094V16.6094Z" stroke="#1B1D21" stroke-width="0.7" stroke-miterlimit="10"/>
<path d="M20 9.90625C20 9.60625 19.9 9.30625 19.8 9.00625L18.7 10.1062H17.7V9.20625L18.8 8.10625C18.6 8.00625 18.3 7.90625 18 7.90625C16.9 7.90625 16 8.80625 16 9.90625C16 11.0063 16.9 11.9062 18 11.9062C19.1 11.9062 20 11.0063 20 9.90625V9.90625Z" stroke="#1B1D21" stroke-width="0.7" stroke-miterlimit="10" stroke-linecap="round" stroke-linejoin="round"/>
<path d="M16.1 10.5078L10.5 16.1078C10.8 16.2078 11.1 16.4078 11.4 16.6078C11.7 16.8078 11.8 17.2078 11.9 17.5078L17.4 12.0078L17.5 11.9078C16.9 11.7078 16.3 11.2078 16.1 10.5078Z" stroke="#1B1D21" stroke-width="0.7" stroke-miterlimit="10"/>
<path d="M10.0004 18.6063C10.3318 18.6063 10.6004 18.3376 10.6004 18.0063C10.6004 17.6749 10.3318 17.4062 10.0004 17.4062C9.66902 17.4062 9.40039 17.6749 9.40039 18.0063C9.40039 18.3376 9.66902 18.6063 10.0004 18.6063Z" fill="#1B1D21"/>
</svg>
