<svg width="28" height="29" viewBox="0 0 28 29" fill="none" xmlns="http://www.w3.org/2000/svg">
<circle cx="14" cy="14.0078" r="13.5" stroke="#1B1D21"/>
<path d="M11.2002 6.40625H16.7002" stroke="#1B1D21" stroke-miterlimit="10"/>
<path d="M21.8 9.70625L19.9 7.80625C19.2 6.90625 18.1 6.40625 16.9 6.40625H15.8C15.8 7.60625 14.8 8.60625 13.7 8.60625C12.5 8.60625 11.5 7.70625 11.5 6.40625H10.6C9.5 6.40625 8.5 6.80625 7.8 7.50625L7.6 7.60625L7.5 7.70625L5.5 9.70625C5 10.1062 5 10.8062 5.5 11.2062L7 12.8063C7.5 13.2063 8.1 13.2063 8.5 12.8063L8.8 12.5062V21.1063C8.8 22.0063 9.1 22.5063 9.9 22.5063H17.5C18.3 22.5063 18.6 22.0063 18.6 21.1063V12.5062L18.9 12.8063C19.3 13.2063 19.9 13.2063 20.4 12.8063L21.8 11.3063C22.3 10.9063 22.3 10.1062 21.8 9.70625V9.70625Z" stroke="#1B1D21" stroke-miterlimit="10" stroke-linecap="round" stroke-linejoin="round"/>
<path d="M16.2002 14.9062H15.2002C14.9002 14.9062 14.7002 14.7063 14.7002 14.4062V12.4062H16.7002V14.4062C16.7002 14.7063 16.4002 14.9062 16.2002 14.9062Z" stroke="#1B1D21" stroke-miterlimit="10" stroke-linecap="round" stroke-linejoin="round"/>
</svg>
