<svg width="28" height="29" viewBox="0 0 28 29" fill="none" xmlns="http://www.w3.org/2000/svg">
<circle cx="14" cy="14.0078" r="13.5" stroke="#1B1D21"/>
<path d="M17.6 18.2109C16.6 19.2109 15.4 19.7109 14 19.7109C12.6 19.7109 11.4 19.2109 10.4 18.2109C10.2 18.0109 10.2 17.7109 10.4 17.6109C10.6 17.4109 10.9 17.4109 11 17.6109C11.8 18.4109 12.8 18.8109 13.9 18.8109C15 18.8109 16.1 18.4109 16.8 17.6109C17 17.4109 17.3 17.4109 17.4 17.6109C17.8 17.7109 17.8 18.0109 17.6 18.2109Z" fill="#1B1D21"/>
<path d="M16.1996 8.60781C16.5996 7.90781 17.2996 7.50781 18.1996 7.50781C19.4996 7.50781 20.4996 8.50781 20.4996 9.80781C20.4996 10.7078 19.9996 11.4078 19.2996 11.8078M8.79961 11.8078C8.09961 11.4078 7.59961 10.7078 7.59961 9.80781C7.59961 8.50781 8.59961 7.50781 9.89961 7.50781C10.6996 7.50781 11.4996 7.90781 11.8996 8.60781" stroke="#1B1D21" stroke-miterlimit="10"/>
<path d="M19.3996 14.7109C19.4996 14.4109 19.4996 14.0109 19.4996 13.7109C19.4996 10.7109 16.9996 8.21094 13.9996 8.21094C10.9996 8.21094 8.49961 10.6109 8.49961 13.7109C8.49961 14.0109 8.49961 14.4109 8.59961 14.7109C7.99961 15.3109 7.59961 16.1109 7.59961 16.9109C7.59961 19.2109 10.4996 21.0109 13.9996 21.0109C17.4996 21.0109 20.3996 19.2109 20.3996 16.9109C20.3996 16.1109 19.9996 15.3109 19.3996 14.7109V14.7109Z" stroke="#1B1D21" stroke-miterlimit="10"/>
<path d="M16.3004 14.6047C16.7974 14.6047 17.2004 13.9779 17.2004 13.2047C17.2004 12.4315 16.7974 11.8047 16.3004 11.8047C15.8033 11.8047 15.4004 12.4315 15.4004 13.2047C15.4004 13.9779 15.8033 14.6047 16.3004 14.6047Z" stroke="#1B1D21" stroke-miterlimit="10"/>
<path d="M13.9996 17.4094C14.4967 17.4094 14.8996 17.0064 14.8996 16.5094C14.8996 16.0123 14.4967 15.6094 13.9996 15.6094C13.5026 15.6094 13.0996 16.0123 13.0996 16.5094C13.0996 17.0064 13.5026 17.4094 13.9996 17.4094Z" stroke="#1B1D21" stroke-miterlimit="10"/>
<path d="M11.6998 14.6047C12.1969 14.6047 12.5998 13.9779 12.5998 13.2047C12.5998 12.4315 12.1969 11.8047 11.6998 11.8047C11.2027 11.8047 10.7998 12.4315 10.7998 13.2047C10.7998 13.9779 11.2027 14.6047 11.6998 14.6047Z" stroke="#1B1D21" stroke-miterlimit="10"/>
</svg>
