<svg width="28" height="29" viewBox="0 0 28 29" fill="none" xmlns="http://www.w3.org/2000/svg">
<circle cx="14" cy="14.0078" r="13.5" stroke="#1B1D21"/>
<path d="M20.5 19.5078H8.5C8 19.5078 7.5 19.1078 7.5 18.5078V11.5078C7.5 10.9078 8 10.5078 8.5 10.5078H20.5C21 10.5078 21.5 11.0078 21.5 11.5078V18.5078C21.5 19.1078 21 19.5078 20.5 19.5078Z" stroke="#1B1D21" stroke-miterlimit="10"/>
<path d="M17 10.5078C16.7 10.5078 16.5 10.3078 16.5 10.0078V9.00781H12.5V10.0078C12.5 10.3078 12.3 10.5078 12 10.5078C11.7 10.5078 11.5 10.3078 11.5 10.0078V8.50781C11.5 8.20781 11.7 8.00781 12 8.00781H17C17.3 8.00781 17.5 8.20781 17.5 8.50781V10.0078C17.5 10.3078 17.3 10.5078 17 10.5078Z" fill="#1B1D21"/>
<path d="M15.5 14.5078H20.5C21.1 14.5078 21.5 14.1078 21.5 13.5078M7.5 13.5078C7.5 14.1078 7.9 14.5078 8.5 14.5078H13" stroke="#1B1D21" stroke-miterlimit="10"/>
<path d="M16 15.0078C16 15.3078 15.8 15.5078 15.5 15.5078H13.5C13.2 15.5078 13 15.3078 13 15.0078V14.0078C13 13.7078 13.2 13.5078 13.5 13.5078H15.5C15.8 13.5078 16 13.7078 16 14.0078V15.0078Z" stroke="#1B1D21" stroke-miterlimit="10"/>
</svg>
