<svg width="28" height="29" viewBox="0 0 28 29" fill="none" xmlns="http://www.w3.org/2000/svg">
<circle cx="14" cy="14.0078" r="13.5" stroke="#1B1D21"/>
<path d="M21 14.4062C21 18.3062 17.8 21.4062 14 21.4062C10.2 21.4062 7 18.2062 7 14.4062C7 10.6062 10.1 7.40625 14 7.40625C17.9 7.40625 21 10.6062 21 14.4062V14.4062Z" stroke="#1B1D21" stroke-miterlimit="10"/>
<path d="M19.2 12.9109L20 10.8109C19.8 10.5109 19.6 10.2109 19.4 10.0109C19.3 10.1109 19.2 10.1109 19.1 10.3109L18.2 12.8109L16.5 13.5109L14.5 12.0109L14.4 9.81094L16.5 8.31094C16.6 8.21094 16.7 8.11094 16.7 8.01094C16.4 7.91094 16 7.81094 15.7 7.71094L13.8 9.01094L12.1 7.71094C11.7 7.81094 11.4 7.91094 11.1 8.11094C11.1 8.21094 11.2 8.31094 11.3 8.31094L13.4 9.81094L13.5 12.0109L11.6 13.3109L9.6 12.7109L8.7 10.4109C8.7 10.3109 8.6 10.2109 8.5 10.1109L7.9 11.0109L8.7 13.1109L7 14.5109C7 14.9109 7 15.2109 7.1 15.6109C7.2 15.6109 7.3 15.6109 7.4 15.5109L9.5 13.8109L11.3 14.3109L12 16.5109L10.8 18.0109L8.4 18.1109C8.3 18.1109 8.3 18.2109 8.2 18.2109C8.4 18.6109 8.7 18.9109 9 19.2109L10.9 19.1109L11.6 21.0109C11.9 21.1109 12.2 21.2109 12.6 21.3109C12.6 21.2109 12.7 21.0109 12.6 20.9109L11.8 18.5109L12.9 17.2109H15.2L16 18.6109L15 20.9109C14.9 21.1109 15 21.2109 15.1 21.4109C15.4 21.4109 15.7 21.3109 16 21.2109L16.9 19.0109L19.2 19.2109C19.4 19.0109 19.6 18.8109 19.7 18.5109C19.6 18.4109 19.5 18.3109 19.3 18.3109L16.7 18.0109L16 16.6109L16.8 14.3109L18.6 13.6109L20.6 15.2109C20.7 15.3109 20.8 15.3109 20.9 15.3109H21C21 15.0109 21.1 14.7109 21.1 14.5109V14.4109L19.2 12.9109ZM15 16.1109H12.9L12.2 14.1109L14 12.8109L15.7 14.1109L15 16.1109Z" fill="#1B1D21"/>
</svg>
