<svg width="28" height="29" viewBox="0 0 28 29" fill="none" xmlns="http://www.w3.org/2000/svg">
<circle cx="14" cy="14.0078" r="13.5" stroke="#1B1D21"/>
<path d="M7.125 17.8828V11.1328C7.125 10.5805 7.57272 10.1328 8.125 10.1328H19.875C20.4273 10.1328 20.875 10.5805 20.875 11.1328V17.8828C20.875 18.4351 20.4273 18.8828 19.875 18.8828H8.125C7.57272 18.8828 7.125 18.4351 7.125 17.8828Z" stroke="#1B1D21"/>
<circle cx="14.0026" cy="14.4948" r="1.66667" stroke="#1B1D21"/>
<path d="M10.1667 10.3411C10.1667 10.7132 10.0934 11.0817 9.95099 11.4254C9.8086 11.7692 9.5999 12.0815 9.3368 12.3446C9.0737 12.6077 8.76136 12.8164 8.4176 12.9588C8.07385 13.1012 7.70541 13.1745 7.33333 13.1745" stroke="#1B1D21"/>
<path d="M17.8333 10.3411C17.8333 10.7132 17.9066 11.0817 18.049 11.4254C18.1914 11.7692 18.4001 12.0815 18.6632 12.3446C18.9263 12.6077 19.2386 12.8164 19.5824 12.9588C19.9262 13.1012 20.2946 13.1745 20.6667 13.1745" stroke="#1B1D21"/>
<path d="M10.1667 18.6745C10.1667 18.3024 10.0934 17.934 9.95099 17.5902C9.8086 17.2465 9.5999 16.9341 9.3368 16.671C9.0737 16.4079 8.76136 16.1992 8.4176 16.0568C8.07385 15.9144 7.70541 15.8411 7.33333 15.8411" stroke="#1B1D21"/>
<path d="M17.8333 18.6745C17.8333 18.3024 17.9066 17.934 18.049 17.5902C18.1914 17.2465 18.4001 16.9341 18.6632 16.671C18.9263 16.4079 19.2386 16.1992 19.5824 16.0568C19.9262 15.9144 20.2946 15.8411 20.6667 15.8411" stroke="#1B1D21"/>
</svg>
