<svg width="28" height="29" viewBox="0 0 28 29" fill="none" xmlns="http://www.w3.org/2000/svg">
<circle cx="14" cy="14.0078" r="13.5" stroke="#1B1D21"/>
<path d="M15.046 17.9679C14.3818 18.6321 13.481 19.0052 12.5417 19.0052C11.6024 19.0052 10.7015 18.6321 10.0373 17.9679C9.37314 17.3037 9 16.4029 9 15.4635C9 14.5242 9.37314 13.6234 10.0373 12.9592" stroke="#1B1D21" stroke-linecap="round"/>
<path d="M12.954 10.0477C13.6182 9.38356 14.519 9.01042 15.4583 9.01042C16.3976 9.01042 17.2985 9.38356 17.9627 10.0477C18.6269 10.7119 19 11.6128 19 12.5521C19 13.4914 18.6269 14.3922 17.9627 15.0564" stroke="#1B1D21" stroke-linecap="round"/>
<path d="M15.4596 12.5469L12.543 15.4635" stroke="#1B1D21" stroke-linecap="round"/>
</svg>
