<svg width="28" height="29" viewBox="0 0 28 29" fill="none" xmlns="http://www.w3.org/2000/svg">
<circle cx="14" cy="14.0078" r="13.5" stroke="#1B1D21"/>
<path d="M7 13.2578C6.72386 13.2578 6.5 13.4817 6.5 13.7578C6.5 14.034 6.72386 14.2578 7 14.2578V13.2578ZM20.5 14.2578C20.7761 14.2578 21 14.034 21 13.7578C21 13.4817 20.7761 13.2578 20.5 13.2578V14.2578ZM14.9893 18.5379L14.5053 18.6634L14.9893 18.5379ZM16.2678 18.6232L15.8048 18.4346L16.2678 18.6232ZM12.5107 8.97769L12.0267 9.10317L12.5107 8.97769ZM9.42124 13.3375L8.9582 13.1488L9.42124 13.3375ZM7 14.2578H8.79613V13.2578H7V14.2578ZM9.88429 13.5261L11.6952 9.08106L10.7692 8.70376L8.9582 13.1488L9.88429 13.5261ZM12.0267 9.10317L14.5053 18.6634L15.4733 18.4125L12.9947 8.85221L12.0267 9.10317ZM16.7308 18.8119L18.5418 14.3668L17.6157 13.9895L15.8048 18.4346L16.7308 18.8119ZM18.7039 14.2578H20.5V13.2578H18.7039V14.2578ZM18.5418 14.3668C18.5686 14.3009 18.6327 14.2578 18.7039 14.2578V13.2578C18.2261 13.2578 17.796 13.5471 17.6157 13.9895L18.5418 14.3668ZM14.5053 18.6634C14.7891 19.7582 16.3041 19.8592 16.7308 18.8119L15.8048 18.4346C15.7412 18.5906 15.5156 18.5755 15.4733 18.4125L14.5053 18.6634ZM11.6952 9.08106C11.7588 8.92507 11.9844 8.94012 12.0267 9.10317L12.9947 8.85221C12.7109 7.75746 11.1959 7.6564 10.7692 8.70376L11.6952 9.08106ZM8.79613 14.2578C9.27387 14.2578 9.70404 13.9686 9.88429 13.5261L8.9582 13.1488C8.93135 13.2147 8.86728 13.2578 8.79613 13.2578V14.2578Z" fill="#1B1D21"/>
</svg>
