<svg width="28" height="29" viewBox="0 0 28 29" fill="none" xmlns="http://www.w3.org/2000/svg">
<circle cx="14" cy="14.0078" r="13.5" stroke="#1B1D21"/>
<path d="M11.0011 10.9416C10.9924 11.2041 11.0355 11.4657 11.1279 11.7116C11.2204 11.9574 11.3603 12.1826 11.5398 12.3744C11.7192 12.5661 11.9347 12.7206 12.1739 12.8291C12.4131 12.9376 12.6713 12.9979 12.9338 13.0066C13.1963 13.0153 13.4579 12.9722 13.7038 12.8797C13.9496 12.7873 14.1748 12.6474 14.3666 12.4679C14.5583 12.2884 14.7128 12.0729 14.8213 11.8338C14.9298 11.5946 14.9901 11.3364 14.9988 11.0739C15.0075 10.8114 14.9643 10.5497 14.8719 10.3039C14.7795 10.0581 14.6395 9.83286 14.4601 9.64111C14.2806 9.44936 14.0651 9.29484 13.8259 9.18636C13.5868 9.07789 13.3285 9.01759 13.0661 9.00891C12.8036 9.00022 12.5419 9.04332 12.2961 9.13575C12.0503 9.22818 11.825 9.36812 11.6333 9.54759C11.4415 9.72706 11.287 9.94254 11.1786 10.1817C11.0701 10.4209 11.0098 10.6791 11.0011 10.9416Z" stroke="#1B1D21" stroke-linecap="round" stroke-linejoin="round"/>
<path d="M12.9999 15.6719C12.1436 15.6719 11.3065 15.9252 10.5946 16.3999C9.8826 16.8745 9.32768 17.5491 9 18.3384" stroke="#1B1D21" stroke-linecap="round" stroke-linejoin="round"/>
<path d="M19.0007 17.0625C19.2769 17.0625 19.5007 16.8386 19.5007 16.5625C19.5007 16.2864 19.2769 16.0625 19.0007 16.0625V17.0625ZM15.4453 16.0625C15.1692 16.0625 14.9453 16.2864 14.9453 16.5625C14.9453 16.8386 15.1692 17.0625 15.4453 17.0625V16.0625ZM19.0007 16.0625H15.4453V17.0625H19.0007V16.0625Z" fill="#1B1D21"/>
<path d="M16.7227 18.3367C16.7227 18.6128 16.9465 18.8367 17.2227 18.8367C17.4988 18.8367 17.7227 18.6128 17.7227 18.3367H16.7227ZM17.7227 14.7812C17.7227 14.5051 17.4988 14.2812 17.2227 14.2812C16.9465 14.2812 16.7227 14.5051 16.7227 14.7812H17.7227ZM17.7227 18.3367V14.7812H16.7227V18.3367H17.7227Z" fill="#1B1D21"/>
</svg>
