<svg width="28" height="28" viewBox="0 0 28 28" fill="none" xmlns="http://www.w3.org/2000/svg">
<circle cx="14" cy="14" r="13.5" stroke="#1B1D21"/>
<path fill-rule="evenodd" clip-rule="evenodd" d="M9.46003 12.456C9.53691 12.3791 9.64119 12.3359 9.74992 12.3359C9.85865 12.3359 9.96293 12.3791 10.0398 12.456C10.1167 12.5329 10.1599 12.6372 10.1599 12.7459V14.2462C10.1599 14.3549 10.1167 14.4592 10.0398 14.5361C9.96293 14.613 9.85865 14.6562 9.74992 14.6562C9.64119 14.6562 9.53691 14.613 9.46003 14.5361C9.38314 14.4592 9.33995 14.3549 9.33995 14.2462V12.7459C9.33995 12.6372 9.38314 12.5329 9.46003 12.456Z" fill="#1B1D21"/>
<path fill-rule="evenodd" clip-rule="evenodd" d="M11.6678 19.9913C11.6807 20.1337 11.6649 20.2772 11.6213 20.4134C11.5769 20.5523 11.5046 20.6805 11.4087 20.7903C11.3129 20.9002 11.1957 20.9893 11.0642 21.0521C10.9327 21.115 10.7897 21.1502 10.6441 21.1558L10.6368 21.1561C10.4972 21.1551 10.3591 21.1285 10.229 21.078L10.2275 21.0774L7.86446 20.132C7.55612 20.0625 7.28301 19.8841 7.09546 19.6293C6.90663 19.3727 6.81753 19.0564 6.8446 18.7391V8.24868C6.81782 7.93017 6.90786 7.6127 7.09807 7.35561C7.2869 7.10039 7.56151 6.92216 7.87115 6.85349L10.2225 5.91251C10.3919 5.84424 10.5764 5.82102 10.7575 5.84527C10.9386 5.86952 11.1104 5.94038 11.2559 6.0509C11.4015 6.16141 11.5158 6.30782 11.5879 6.47578C11.6587 6.64091 11.6862 6.82133 11.6678 6.99996V19.9913ZM10.5223 6.67606L8.15334 7.624C7.91738 7.71135 7.80744 7.78045 7.74862 7.85667C7.69346 7.92813 7.66455 8.03076 7.66455 8.24174V18.748C7.66455 18.959 7.69346 19.062 7.7482 19.1334C7.80631 19.2093 7.91467 19.2779 8.14733 19.3639L8.15129 19.3654L10.5262 20.3162C10.5622 20.3298 10.6004 20.3371 10.639 20.3378C10.6942 20.3375 10.7393 20.3144 10.7754 20.2653C10.8146 20.2121 10.8456 20.1234 10.8456 19.9988V6.99095C10.8456 6.86646 10.8145 6.77786 10.7754 6.72482C10.7392 6.67584 10.6942 6.65276 10.6393 6.65239C10.5993 6.65326 10.5595 6.66134 10.5223 6.67606Z" fill="#1B1D21"/>
<path fill-rule="evenodd" clip-rule="evenodd" d="M15.7566 7.65197H12.2244C12.1157 7.65197 12.0114 7.60877 11.9345 7.53189C11.8576 7.455 11.8145 7.35072 11.8145 7.24199C11.8145 7.13326 11.8576 7.02898 11.9345 6.9521C12.0114 6.87521 12.1157 6.83202 12.2244 6.83202H15.7567C16.1306 6.83243 16.4892 6.98113 16.7535 7.2455C17.0179 7.50986 17.1666 7.8683 17.167 8.24217V11.9933C17.167 12.1021 17.1238 12.2063 17.0469 12.2832C16.9701 12.3601 16.8658 12.4033 16.757 12.4033C16.6483 12.4033 16.544 12.3601 16.4671 12.2832C16.3903 12.2063 16.3471 12.1021 16.3471 11.9933V8.24254C16.3469 8.08597 16.2846 7.93587 16.1739 7.82515C16.0632 7.71446 15.9131 7.65218 15.7566 7.65197Z" fill="#1B1D21"/>
<path fill-rule="evenodd" clip-rule="evenodd" d="M16.3466 18.7447C16.3464 18.9013 16.2841 19.0514 16.1734 19.1621C16.0627 19.2728 15.9126 19.3351 15.756 19.3353H12.2552C12.1465 19.3353 12.0422 19.3785 11.9653 19.4554C11.8884 19.5323 11.8452 19.6366 11.8452 19.7453C11.8452 19.854 11.8884 19.9583 11.9653 20.0352C12.0422 20.1121 12.1465 20.1553 12.2552 20.1553H15.7562C16.1301 20.1549 16.4887 20.0061 16.7531 19.7418C17.0174 19.4774 17.1661 19.119 17.1665 18.7451V14.9939C17.1665 14.8852 17.1233 14.7809 17.0465 14.704C16.9696 14.6272 16.8653 14.584 16.7566 14.584C16.6478 14.584 16.5435 14.6272 16.4667 14.704C16.3898 14.7809 16.3466 14.8852 16.3466 14.9939V18.7447Z" fill="#1B1D21"/>
<path fill-rule="evenodd" clip-rule="evenodd" d="M22.1368 13.3358C22.1162 13.2859 22.0862 13.2404 22.0481 13.2022L19.5493 10.703C19.512 10.664 19.4674 10.6327 19.418 10.6109C19.3678 10.5888 19.3137 10.577 19.2588 10.5762C19.204 10.5754 19.1495 10.5856 19.0987 10.6062C19.0479 10.6268 19.0017 10.6575 18.9629 10.6962C18.9241 10.735 18.8935 10.7812 18.8729 10.832C18.8523 10.8829 18.8421 10.9373 18.8429 10.9922C18.8437 11.047 18.8555 11.1011 18.8776 11.1513C18.8994 11.2007 18.9306 11.2453 18.9697 11.2826L20.7688 13.0818H12.7562C12.6474 13.0818 12.5432 13.125 12.4663 13.2019C12.3894 13.2787 12.3462 13.383 12.3462 13.4918C12.3462 13.6005 12.3894 13.7048 12.4663 13.7816C12.5432 13.8585 12.6474 13.9017 12.7562 13.9017H20.7684L18.9692 15.7009C18.9302 15.7382 18.8989 15.7828 18.8771 15.8322C18.855 15.8824 18.8432 15.9365 18.8424 15.9914C18.8416 16.0462 18.8518 16.1006 18.8725 16.1515C18.8931 16.2023 18.9237 16.2485 18.9625 16.2873C19.0012 16.326 19.0474 16.3567 19.0983 16.3773C19.1491 16.3979 19.2036 16.4081 19.2584 16.4073C19.3132 16.4065 19.3673 16.3947 19.4176 16.3726C19.467 16.3509 19.5116 16.3196 19.5488 16.2805L22.0476 13.7818C22.1047 13.7244 22.1438 13.6512 22.1596 13.5718C22.1754 13.4926 22.1675 13.4105 22.1368 13.3358Z" fill="#1B1D21"/>
</svg>
