<svg width="28" height="29" viewBox="0 0 28 29" fill="none" xmlns="http://www.w3.org/2000/svg">
<circle cx="14" cy="14.0078" r="13.5" stroke="#1B1D21"/>
<path d="M15.5504 8.52864C16.049 9.39239 16.9706 9.92448 17.968 9.92448C19.3472 9.92448 20.2093 11.4176 19.5197 12.612C19.021 13.4757 19.021 14.5399 19.5197 15.4037C20.2093 16.5981 19.3473 18.0911 17.968 18.0911C16.9707 18.0911 16.0491 18.6232 15.5504 19.487C14.8608 20.6814 13.1367 20.6814 12.4471 19.487C11.9484 18.6232 11.0268 18.0911 10.0295 18.0911C8.65024 18.0911 7.78821 16.5981 8.47783 15.4036C8.97651 14.5399 8.97652 13.4757 8.47784 12.612C7.78823 11.4175 8.65024 9.92448 10.0294 9.92448C11.0268 9.92448 11.9484 9.39239 12.4471 8.52865C13.1367 7.3342 14.8607 7.3342 15.5504 8.52864L15.9834 8.27864L15.5504 8.52864Z" stroke="#1B1D21"/>
<path d="M12.7507 13.9665C12.7453 14.1305 12.7722 14.2941 12.83 14.4477C12.8877 14.6014 12.9752 14.7421 13.0874 14.862C13.1995 14.9818 13.3342 15.0784 13.4837 15.1462C13.6332 15.214 13.7946 15.2517 13.9587 15.2571C14.1227 15.2626 14.2863 15.2356 14.4399 15.1778C14.5936 15.1201 14.7343 15.0326 14.8542 14.9204C14.974 14.8083 15.0706 14.6736 15.1384 14.5241C15.2062 14.3746 15.2439 14.2132 15.2493 14.0491C15.2547 13.8851 15.2278 13.7216 15.17 13.5679C15.1123 13.4143 15.0248 13.2735 14.9126 13.1536C14.8005 13.0338 14.6658 12.9372 14.5163 12.8694C14.3668 12.8016 14.2054 12.7639 14.0413 12.7585C13.8773 12.7531 13.7137 12.78 13.5601 12.8378C13.4064 12.8955 13.2657 12.983 13.1458 13.0952C13.026 13.2074 12.9294 13.342 12.8616 13.4915C12.7938 13.641 12.7561 13.8024 12.7507 13.9665Z" stroke="#1B1D21" stroke-linecap="round" stroke-linejoin="round"/>
</svg>
