<svg width="28" height="29" viewBox="0 0 28 29" fill="none" xmlns="http://www.w3.org/2000/svg">
<circle cx="14" cy="14.0078" r="13.5" stroke="#1B1D21"/>
<path d="M13.7899 8.74833C13.8557 8.54222 14.1443 8.54222 14.2101 8.74833L15.3803 12.4148C15.4097 12.5071 15.4949 12.5696 15.5908 12.5694L19.4034 12.5609C19.6177 12.5605 19.7069 12.8378 19.5332 12.9647L16.4439 15.2223C16.3661 15.2791 16.3336 15.3802 16.3635 15.4724L17.5495 19.1336C17.6162 19.3395 17.3827 19.5109 17.2096 19.3832L14.1301 17.112C14.0526 17.0548 13.9474 17.0548 13.8699 17.112L10.7904 19.3832C10.6173 19.5108 10.3838 19.3395 10.4505 19.1336L11.6365 15.4724C11.6664 15.3802 11.6339 15.2791 11.5561 15.2223L8.4668 12.9647C8.29314 12.8378 8.38232 12.5605 8.59663 12.5609L12.4092 12.5694C12.5051 12.5696 12.5903 12.5071 12.6197 12.4148L13.7899 8.74833Z" stroke="#1B1D21"/>
</svg>
