<svg width="28" height="29" viewBox="0 0 28 29" fill="none" xmlns="http://www.w3.org/2000/svg">
<circle cx="14" cy="14.0078" r="13.5" stroke="#1B1D21"/>
<path d="M20.75 13.2578V10.6278C20.75 9.59504 19.9128 8.75781 18.88 8.75781H14.5H9.12C8.08723 8.75781 7.25 9.59504 7.25 10.6278V17.3878C7.25 18.4206 8.08723 19.2578 9.12 19.2578H14.25" stroke="#1B1D21" stroke-linecap="round" stroke-linejoin="round"/>
<path d="M8 9.50781L12.844 12.939C13.5366 13.4296 14.4634 13.4296 15.156 12.939L20 9.50781" stroke="#1B1D21" stroke-linecap="round" stroke-linejoin="round"/>
<path d="M21.5 18.5078C21.7761 18.5078 22 18.284 22 18.0078C22 17.7317 21.7761 17.5078 21.5 17.5078V18.5078ZM17.5 17.5078C17.2239 17.5078 17 17.7317 17 18.0078C17 18.284 17.2239 18.5078 17.5 18.5078V17.5078ZM21.5 17.5078H17.5V18.5078H21.5V17.5078Z" fill="#1B1D21"/>
<path d="M19 20.0078C19 20.284 19.2239 20.5078 19.5 20.5078C19.7761 20.5078 20 20.284 20 20.0078H19ZM20 16.0078C20 15.7317 19.7761 15.5078 19.5 15.5078C19.2239 15.5078 19 15.7317 19 16.0078H20ZM20 20.0078V16.0078H19V20.0078H20Z" fill="#1B1D21"/>
</svg>
