<svg width="28" height="29" viewBox="0 0 28 29" fill="none" xmlns="http://www.w3.org/2000/svg">
<circle cx="14" cy="14.0078" r="13.5" stroke="#1B1D21"/>
<path fill-rule="evenodd" clip-rule="evenodd" d="M11.3333 9.00781H10C9.73478 9.00781 9.48043 9.11317 9.29289 9.30071C9.10536 9.48824 9 9.7426 9 10.0078V11.3411C9 11.6064 9.10536 11.8607 9.29289 12.0483C9.48043 12.2358 9.73478 12.3411 10 12.3411H11.3333C11.5985 12.3411 11.8529 12.2358 12.0404 12.0483C12.228 11.8607 12.3333 11.6064 12.3333 11.3411V10.0078C12.3333 9.7426 12.228 9.48824 12.0404 9.30071C11.8529 9.11317 11.5985 9.00781 11.3333 9.00781ZM10 8.00781C9.46957 8.00781 8.96086 8.21853 8.58579 8.5936C8.21071 8.96867 8 9.47738 8 10.0078V11.3411C8 11.8716 8.21071 12.3803 8.58579 12.7554C8.96086 13.1304 9.46957 13.3411 10 13.3411H11.3333C11.8638 13.3411 12.3725 13.1304 12.7475 12.7554C13.1226 12.3803 13.3333 11.8716 13.3333 11.3411V10.0078C13.3333 9.47738 13.1226 8.96867 12.7475 8.5936C12.3725 8.21853 11.8638 8.00781 11.3333 8.00781H10ZM11.3333 15.6745H10C9.73478 15.6745 9.48043 15.7798 9.29289 15.9674C9.10536 16.1549 9 16.4093 9 16.6745V18.0078C9 18.273 9.10536 18.5274 9.29289 18.7149C9.48043 18.9025 9.73478 19.0078 10 19.0078H11.3333C11.5985 19.0078 11.8529 18.9025 12.0404 18.7149C12.228 18.5274 12.3333 18.273 12.3333 18.0078V16.6745C12.3333 16.4093 12.228 16.1549 12.0404 15.9674C11.8529 15.7798 11.5985 15.6745 11.3333 15.6745ZM10 14.6745C9.46957 14.6745 8.96086 14.8852 8.58579 15.2603C8.21071 15.6353 8 16.144 8 16.6745V18.0078C8 18.5382 8.21071 19.047 8.58579 19.422C8.96086 19.7971 9.46957 20.0078 10 20.0078H11.3333C11.8638 20.0078 12.3725 19.7971 12.7475 19.422C13.1226 19.047 13.3333 18.5382 13.3333 18.0078V16.6745C13.3333 16.144 13.1226 15.6353 12.7475 15.2603C12.3725 14.8852 11.8638 14.6745 11.3333 14.6745H10ZM18 9.00781H16.6667C16.4015 9.00781 16.1471 9.11317 15.9596 9.30071C15.772 9.48824 15.6667 9.7426 15.6667 10.0078V11.3411C15.6667 11.6064 15.772 11.8607 15.9596 12.0483C16.1471 12.2358 16.4015 12.3411 16.6667 12.3411H18C18.2652 12.3411 18.5196 12.2358 18.7071 12.0483C18.8946 11.8607 19 11.6064 19 11.3411V10.0078C19 9.7426 18.8946 9.48824 18.7071 9.30071C18.5196 9.11317 18.2652 9.00781 18 9.00781ZM16.6667 8.00781C16.1362 8.00781 15.6275 8.21853 15.2525 8.5936C14.8774 8.96867 14.6667 9.47738 14.6667 10.0078V11.3411C14.6667 11.8716 14.8774 12.3803 15.2525 12.7554C15.6275 13.1304 16.1362 13.3411 16.6667 13.3411H18C18.5304 13.3411 19.0391 13.1304 19.4142 12.7554C19.7893 12.3803 20 11.8716 20 11.3411V10.0078C20 9.47738 19.7893 8.96867 19.4142 8.5936C19.0391 8.21853 18.5304 8.00781 18 8.00781H16.6667ZM18 15.6745H16.6667C16.4015 15.6745 16.1471 15.7798 15.9596 15.9674C15.772 16.1549 15.6667 16.4093 15.6667 16.6745V18.0078C15.6667 18.273 15.772 18.5274 15.9596 18.7149C16.1471 18.9025 16.4015 19.0078 16.6667 19.0078H18C18.2652 19.0078 18.5196 18.9025 18.7071 18.7149C18.8946 18.5274 19 18.273 19 18.0078V16.6745C19 16.4093 18.8946 16.1549 18.7071 15.9674C18.5196 15.7798 18.2652 15.6745 18 15.6745ZM16.6667 14.6745C16.1362 14.6745 15.6275 14.8852 15.2525 15.2603C14.8774 15.6353 14.6667 16.144 14.6667 16.6745V18.0078C14.6667 18.5382 14.8774 19.047 15.2525 19.422C15.6275 19.7971 16.1362 20.0078 16.6667 20.0078H18C18.5304 20.0078 19.0391 19.7971 19.4142 19.422C19.7893 19.047 20 18.5382 20 18.0078V16.6745C20 16.144 19.7893 15.6353 19.4142 15.2603C19.0391 14.8852 18.5304 14.6745 18 14.6745H16.6667Z" fill="#1B1D21"/>
</svg>
